<svg width="193" height="92" viewBox="0 0 193 92" fill="none" xmlns="http://www.w3.org/2000/svg">
<path d="M152.059 28.6666H178.417V76.0197H152.059V28.6666Z" fill="#EBEBFF"/>
<path d="M155.164 31.4761H170.024V32.0147H155.164V31.4761Z" fill="white"/>
<path d="M171.517 31.4761H175.312V32.0147H171.517V31.4761Z" fill="white"/>
<path d="M155.164 33.3778H170.024V33.9165H155.164V33.3778Z" fill="white"/>
<path d="M171.517 33.3778H175.312V33.9165H171.517V33.3778Z" fill="white"/>
<path d="M155.164 35.2797H170.024V35.8183H155.164V35.2797Z" fill="white"/>
<path d="M171.517 35.2797H175.312V35.8183H171.517V35.2797Z" fill="white"/>
<path d="M155.164 37.1815H170.024V37.7202H155.164V37.1815Z" fill="white"/>
<path d="M171.517 37.1815H175.312V37.7202H171.517V37.1815Z" fill="white"/>
<path d="M155.164 39.0834H170.024V39.622H155.164V39.0834Z" fill="white"/>
<path d="M171.517 39.0834H175.312V39.622H171.517V39.0834Z" fill="white"/>
<path d="M155.164 40.9851H170.024V41.5238H155.164V40.9851Z" fill="white"/>
<path d="M171.517 40.9852H175.312V41.5239H171.517V40.9852Z" fill="white"/>
<path d="M155.164 42.887H170.024V43.4256H155.164V42.887Z" fill="white"/>
<path d="M171.517 42.8871H175.312V43.4258H171.517V42.8871Z" fill="white"/>
<path d="M155.164 44.7889H170.024V45.3276H155.164V44.7889Z" fill="white"/>
<path d="M171.517 44.7889H175.312V45.3276H171.517V44.7889Z" fill="white"/>
<path d="M155.164 46.6906H170.024V47.2292H155.164V46.6906Z" fill="white"/>
<path d="M171.517 46.6906H175.312V47.2292H171.517V46.6906Z" fill="white"/>
<path d="M155.164 48.5924H170.024V49.1311H155.164V48.5924Z" fill="white"/>
<path d="M171.517 48.5924H175.312V49.1311H171.517V48.5924Z" fill="white"/>
<path d="M155.164 50.4943H170.024V51.0329H155.164V50.4943Z" fill="white"/>
<path d="M171.517 50.4944H175.312V51.0331H171.517V50.4944Z" fill="white"/>
<path d="M155.164 52.3961H170.024V52.9348H155.164V52.3961Z" fill="white"/>
<path d="M171.517 52.3961H175.312V52.9348H171.517V52.3961Z" fill="white"/>
<path d="M155.164 54.2981H170.024V54.8368H155.164V54.2981Z" fill="white"/>
<path d="M171.517 54.298H175.312V54.8366H171.517V54.298Z" fill="white"/>
<path d="M155.164 56.2H170.024V56.7386H155.164V56.2Z" fill="white"/>
<path d="M171.517 56.2H175.312V56.7386H171.517V56.2Z" fill="white"/>
<path d="M155.164 58.1018H170.024V58.6405H155.164V58.1018Z" fill="white"/>
<path d="M171.517 58.1018H175.312V58.6405H171.517V58.1018Z" fill="white"/>
<path d="M155.164 60.0034H170.024V60.5421H155.164V60.0034Z" fill="white"/>
<path d="M171.517 60.0034H175.312V60.5421H171.517V60.0034Z" fill="white"/>
<path d="M155.164 61.9053H170.024V62.4439H155.164V61.9053Z" fill="white"/>
<path d="M171.517 61.9053H175.312V62.4439H171.517V61.9053Z" fill="white"/>
<path d="M80.9589 19.1044H103.709V66.4575H80.9589V19.1044Z" fill="#EBEBFF"/>
<path d="M7.45179 37.0412V15.2913H19.9188V9.4425H20.2366V15.2913H22.7379V37.0412H25.8148V72.7611H4.37465V37.0412H7.45179Z" fill="#EBEBFF"/>
<path d="M19.6232 17.0939H21.0801V18.1186H19.6232V17.0939Z" fill="white"/>
<path d="M16.9948 17.0939H18.4518V18.1186H16.9948V17.0939Z" fill="white"/>
<path d="M14.3665 17.0939H15.8235V18.1186H14.3665V17.0939Z" fill="white"/>
<path d="M11.7379 17.0939H13.1949V18.1186H11.7379V17.0939Z" fill="white"/>
<path d="M9.1096 17.0939H10.5666V18.1186H9.1096V17.0939Z" fill="white"/>
<path d="M19.6232 18.8253H21.0801V19.8501H19.6232V18.8253Z" fill="white"/>
<path d="M16.9948 18.8253H18.4518V19.8501H16.9948V18.8253Z" fill="white"/>
<path d="M14.3665 18.8253H15.8235V19.8501H14.3665V18.8253Z" fill="white"/>
<path d="M11.7379 18.8253H13.1949V19.8501H11.7379V18.8253Z" fill="white"/>
<path d="M9.1096 18.8253H10.5666V19.8501H9.1096V18.8253Z" fill="white"/>
<path d="M19.6232 20.5566H21.0801V21.5814H19.6232V20.5566Z" fill="white"/>
<path d="M16.9948 20.5566H18.4518V21.5814H16.9948V20.5566Z" fill="white"/>
<path d="M14.3665 20.5566H15.8235V21.5814H14.3665V20.5566Z" fill="white"/>
<path d="M11.7379 20.5566H13.1949V21.5814H11.7379V20.5566Z" fill="white"/>
<path d="M9.1096 20.5566H10.5666V21.5814H9.1096V20.5566Z" fill="white"/>
<path d="M19.6232 22.2878H21.0801V23.3126H19.6232V22.2878Z" fill="white"/>
<path d="M16.9948 22.2878H18.4518V23.3126H16.9948V22.2878Z" fill="white"/>
<path d="M9.1096 22.2878H10.5666V23.3126H9.1096V22.2878Z" fill="white"/>
<path d="M19.6232 24.0194H21.0801V25.0441H19.6232V24.0194Z" fill="white"/>
<path d="M16.9948 24.0194H18.4518V25.0441H16.9948V24.0194Z" fill="white"/>
<path d="M14.3665 24.0194H15.8235V25.0441H14.3665V24.0194Z" fill="white"/>
<path d="M11.7379 24.0194H13.1949V25.0441H11.7379V24.0194Z" fill="white"/>
<path d="M9.1096 24.0194H10.5666V25.0441H9.1096V24.0194Z" fill="white"/>
<path d="M19.6232 25.7506H21.0801V26.7753H19.6232V25.7506Z" fill="white"/>
<path d="M16.9948 25.7506H18.4518V26.7753H16.9948V25.7506Z" fill="white"/>
<path d="M14.3665 25.7506H15.8235V26.7753H14.3665V25.7506Z" fill="white"/>
<path d="M11.7379 25.7506H13.1949V26.7753H11.7379V25.7506Z" fill="white"/>
<path d="M9.1096 25.7506H10.5666V26.7753H9.1096V25.7506Z" fill="white"/>
<path d="M19.6232 27.4819H21.0801V28.5067H19.6232V27.4819Z" fill="white"/>
<path d="M14.3665 27.4819H15.8235V28.5067H14.3665V27.4819Z" fill="white"/>
<path d="M11.7379 27.4819H13.1949V28.5067H11.7379V27.4819Z" fill="white"/>
<path d="M9.1096 27.4819H10.5666V28.5067H9.1096V27.4819Z" fill="white"/>
<path d="M19.6232 29.2135H21.0801V30.2382H19.6232V29.2135Z" fill="white"/>
<path d="M11.7379 29.2135H13.1949V30.2382H11.7379V29.2135Z" fill="white"/>
<path d="M9.1096 29.2135H10.5666V30.2382H9.1096V29.2135Z" fill="white"/>
<path d="M19.6232 30.9447H21.0801V31.9694H19.6232V30.9447Z" fill="white"/>
<path d="M11.7379 30.9447H13.1949V31.9694H11.7379V30.9447Z" fill="white"/>
<path d="M9.1096 30.9447H10.5666V31.9694H9.1096V30.9447Z" fill="white"/>
<path d="M19.6232 32.676H21.0801V33.7008H19.6232V32.676Z" fill="white"/>
<path d="M16.9948 32.676H18.4518V33.7008H16.9948V32.676Z" fill="white"/>
<path d="M14.3665 32.676H15.8235V33.7008H14.3665V32.676Z" fill="white"/>
<path d="M11.7379 32.676H13.1949V33.7008H11.7379V32.676Z" fill="white"/>
<path d="M19.6232 34.4075H21.0801V35.4322H19.6232V34.4075Z" fill="white"/>
<path d="M16.9948 34.4075H18.4518V35.4322H16.9948V34.4075Z" fill="white"/>
<path d="M14.3665 34.4075H15.8235V35.4322H14.3665V34.4075Z" fill="white"/>
<path d="M9.1096 34.4075H10.5666V35.4322H9.1096V34.4075Z" fill="white"/>
<path d="M22.3575 38.4044H23.8664V39.4292H22.3575V38.4044Z" fill="white"/>
<path d="M19.6851 38.4044H21.194V39.4292H19.6851V38.4044Z" fill="white"/>
<path d="M17.0127 38.4044H18.5216V39.4292H17.0127V38.4044Z" fill="white"/>
<path d="M14.3403 38.4044H15.8492V39.4292H14.3403V38.4044Z" fill="white"/>
<path d="M11.6679 38.4044H13.1768V39.4292H11.6679V38.4044Z" fill="white"/>
<path d="M22.3575 40.0632H23.8664V41.088H22.3575V40.0632Z" fill="white"/>
<path d="M19.6851 40.0634H21.194V41.0881H19.6851V40.0634Z" fill="white"/>
<path d="M17.0127 40.0634H18.5216V41.0881H17.0127V40.0634Z" fill="white"/>
<path d="M14.3403 40.0634H15.8492V41.0881H14.3403V40.0634Z" fill="white"/>
<path d="M11.6679 40.0634H13.1768V41.0881H11.6679V40.0634Z" fill="white"/>
<path d="M8.99572 40.0634H10.5044V41.0881H8.99572V40.0634Z" fill="white"/>
<path d="M22.3575 41.722H23.8664V42.7468H22.3575V41.722Z" fill="white"/>
<path d="M19.6851 41.722H21.194V42.7468H19.6851V41.722Z" fill="white"/>
<path d="M17.0127 41.722H18.5216V42.7468H17.0127V41.722Z" fill="white"/>
<path d="M14.3403 41.722H15.8492V42.7468H14.3403V41.722Z" fill="white"/>
<path d="M11.6679 41.722H13.1768V42.7468H11.6679V41.722Z" fill="white"/>
<path d="M8.99572 41.722H10.5044V42.7468H8.99572V41.722Z" fill="white"/>
<path d="M6.32336 41.722H7.83203V42.7468H6.32336V41.722Z" fill="white"/>
<path d="M22.3575 43.3807H23.8664V44.4055H22.3575V43.3807Z" fill="white"/>
<path d="M17.0127 43.3807H18.5216V44.4055H17.0127V43.3807Z" fill="white"/>
<path d="M14.3403 43.3807H15.8492V44.4055H14.3403V43.3807Z" fill="white"/>
<path d="M11.6679 43.3807H13.1768V44.4055H11.6679V43.3807Z" fill="white"/>
<path d="M8.99572 43.3807H10.5044V44.4055H8.99572V43.3807Z" fill="white"/>
<path d="M6.32336 43.3807H7.83203V44.4055H6.32336V43.3807Z" fill="white"/>
<path d="M22.3575 45.0396H23.8664V46.0643H22.3575V45.0396Z" fill="white"/>
<path d="M19.6851 45.0396H21.194V46.0643H19.6851V45.0396Z" fill="white"/>
<path d="M17.0127 45.0396H18.5216V46.0643H17.0127V45.0396Z" fill="white"/>
<path d="M14.3403 45.0396H15.8492V46.0643H14.3403V45.0396Z" fill="white"/>
<path d="M11.6679 45.0396H13.1768V46.0643H11.6679V45.0396Z" fill="white"/>
<path d="M8.99572 45.0396H10.5044V46.0643H8.99572V45.0396Z" fill="white"/>
<path d="M6.32336 45.0396H7.83203V46.0643H6.32336V45.0396Z" fill="white"/>
<path d="M22.3575 46.6982H23.8664V47.723H22.3575V46.6982Z" fill="white"/>
<path d="M19.6851 46.6982H21.194V47.723H19.6851V46.6982Z" fill="white"/>
<path d="M17.0127 46.6982H18.5216V47.723H17.0127V46.6982Z" fill="white"/>
<path d="M14.3403 46.6982H15.8492V47.723H14.3403V46.6982Z" fill="white"/>
<path d="M8.99572 46.6982H10.5044V47.723H8.99572V46.6982Z" fill="white"/>
<path d="M6.32336 46.6982H7.83203V47.723H6.32336V46.6982Z" fill="white"/>
<path d="M22.3575 48.3571H23.8664V49.3818H22.3575V48.3571Z" fill="white"/>
<path d="M19.6851 48.3569H21.194V49.3817H19.6851V48.3569Z" fill="white"/>
<path d="M17.0127 48.3569H18.5216V49.3817H17.0127V48.3569Z" fill="white"/>
<path d="M8.99572 48.3569H10.5044V49.3817H8.99572V48.3569Z" fill="white"/>
<path d="M6.32336 48.3569H7.83203V49.3817H6.32336V48.3569Z" fill="white"/>
<path d="M22.3575 50.0157H23.8664V51.0405H22.3575V50.0157Z" fill="white"/>
<path d="M19.6851 50.0157H21.194V51.0405H19.6851V50.0157Z" fill="white"/>
<path d="M17.0127 50.0157H18.5216V51.0405H17.0127V50.0157Z" fill="white"/>
<path d="M8.99572 50.0157H10.5044V51.0405H8.99572V50.0157Z" fill="white"/>
<path d="M6.32336 50.0157H7.83203V51.0405H6.32336V50.0157Z" fill="white"/>
<path d="M22.3575 51.6747H23.8664V52.6994H22.3575V51.6747Z" fill="white"/>
<path d="M19.6851 51.6747H21.194V52.6994H19.6851V51.6747Z" fill="white"/>
<path d="M17.0127 51.6747H18.5216V52.6994H17.0127V51.6747Z" fill="white"/>
<path d="M14.3403 51.6747H15.8492V52.6994H14.3403V51.6747Z" fill="white"/>
<path d="M11.6679 51.6747H13.1768V52.6994H11.6679V51.6747Z" fill="white"/>
<path d="M8.99572 51.6747H10.5044V52.6994H8.99572V51.6747Z" fill="white"/>
<path d="M6.32336 51.6747H7.83203V52.6994H6.32336V51.6747Z" fill="white"/>
<path d="M22.3575 53.3334H23.8664V54.3581H22.3575V53.3334Z" fill="white"/>
<path d="M19.6851 53.3334H21.194V54.3581H19.6851V53.3334Z" fill="white"/>
<path d="M14.3403 53.3334H15.8492V54.3581H14.3403V53.3334Z" fill="white"/>
<path d="M11.6679 53.3334H13.1768V54.3581H11.6679V53.3334Z" fill="white"/>
<path d="M8.99572 53.3334H10.5044V54.3581H8.99572V53.3334Z" fill="white"/>
<path d="M6.32336 53.3334H7.83203V54.3581H6.32336V53.3334Z" fill="white"/>
<path d="M22.3575 54.9922H23.8664V56.0169H22.3575V54.9922Z" fill="white"/>
<path d="M19.6851 54.9922H21.194V56.0169H19.6851V54.9922Z" fill="white"/>
<path d="M14.3403 54.9922H15.8492V56.0169H14.3403V54.9922Z" fill="white"/>
<path d="M11.6679 54.9922H13.1768V56.0169H11.6679V54.9922Z" fill="white"/>
<path d="M8.99572 54.9922H10.5044V56.0169H8.99572V54.9922Z" fill="white"/>
<path d="M6.32336 54.9922H7.83203V56.0169H6.32336V54.9922Z" fill="white"/>
<path d="M22.3575 56.6509H23.8664V57.6756H22.3575V56.6509Z" fill="white"/>
<path d="M19.6851 56.6509H21.194V57.6756H19.6851V56.6509Z" fill="white"/>
<path d="M14.3403 56.6509H15.8492V57.6756H14.3403V56.6509Z" fill="white"/>
<path d="M11.6679 56.6509H13.1768V57.6756H11.6679V56.6509Z" fill="white"/>
<path d="M8.99572 56.6509H10.5044V57.6756H8.99572V56.6509Z" fill="white"/>
<path d="M6.32336 56.6509H7.83203V57.6756H6.32336V56.6509Z" fill="white"/>
<path d="M22.3575 58.3097H23.8664V59.3344H22.3575V58.3097Z" fill="white"/>
<path d="M19.6851 58.3097H21.194V59.3344H19.6851V58.3097Z" fill="white"/>
<path d="M17.0127 58.3097H18.5216V59.3344H17.0127V58.3097Z" fill="white"/>
<path d="M14.3403 58.3097H15.8492V59.3344H14.3403V58.3097Z" fill="white"/>
<path d="M8.99572 58.3097H10.5044V59.3344H8.99572V58.3097Z" fill="white"/>
<path d="M6.32336 58.3097H7.83203V59.3344H6.32336V58.3097Z" fill="white"/>
<path d="M22.3575 59.9684H23.8664V60.9931H22.3575V59.9684Z" fill="white"/>
<path d="M19.6851 59.9684H21.194V60.9931H19.6851V59.9684Z" fill="white"/>
<path d="M17.0127 59.9684H18.5216V60.9931H17.0127V59.9684Z" fill="white"/>
<path d="M14.3403 59.9684H15.8492V60.9931H14.3403V59.9684Z" fill="white"/>
<path d="M8.99572 59.9684H10.5044V60.9931H8.99572V59.9684Z" fill="white"/>
<path d="M6.32336 59.9684H7.83203V60.9931H6.32336V59.9684Z" fill="white"/>
<path d="M22.3575 61.6273H23.8664V62.6521H22.3575V61.6273Z" fill="white"/>
<path d="M19.6851 61.6273H21.194V62.6521H19.6851V61.6273Z" fill="white"/>
<path d="M17.0127 61.6273H18.5216V62.6521H17.0127V61.6273Z" fill="white"/>
<path d="M6.32336 61.6273H7.83203V62.6521H6.32336V61.6273Z" fill="white"/>
<path d="M22.3575 63.286H23.8664V64.3107H22.3575V63.286Z" fill="white"/>
<path d="M19.6851 63.286H21.194V64.3107H19.6851V63.286Z" fill="white"/>
<path d="M17.0127 63.286H18.5216V64.3107H17.0127V63.286Z" fill="white"/>
<path d="M11.6679 63.286H13.1768V64.3107H11.6679V63.286Z" fill="white"/>
<path d="M8.99572 63.286H10.5044V64.3107H8.99572V63.286Z" fill="white"/>
<path d="M6.32336 63.286H7.83203V64.3107H6.32336V63.286Z" fill="white"/>
<path d="M22.3575 64.9448H23.8664V65.9696H22.3575V64.9448Z" fill="white"/>
<path d="M17.0127 64.9448H18.5216V65.9696H17.0127V64.9448Z" fill="white"/>
<path d="M14.3403 64.9448H15.8492V65.9696H14.3403V64.9448Z" fill="white"/>
<path d="M11.6679 64.9448H13.1768V65.9696H11.6679V64.9448Z" fill="white"/>
<path d="M8.99572 64.9448H10.5044V65.9696H8.99572V64.9448Z" fill="white"/>
<path d="M6.32336 64.9448H7.83203V65.9696H6.32336V64.9448Z" fill="white"/>
<path d="M22.3575 66.6035H23.8664V67.6283H22.3575V66.6035Z" fill="white"/>
<path d="M19.6851 66.6035H21.194V67.6283H19.6851V66.6035Z" fill="white"/>
<path d="M17.0127 66.6035H18.5216V67.6283H17.0127V66.6035Z" fill="white"/>
<path d="M14.3403 66.6035H15.8492V67.6283H14.3403V66.6035Z" fill="white"/>
<path d="M11.6679 66.6035H13.1768V67.6283H11.6679V66.6035Z" fill="white"/>
<path d="M8.99572 66.6035H10.5044V67.6283H8.99572V66.6035Z" fill="white"/>
<path d="M6.32336 66.6035H7.83203V67.6283H6.32336V66.6035Z" fill="white"/>
<path d="M118.235 32.0147V10.2648H130.703V4.41602H131.02V10.2648H133.522V32.0147H136.599V67.7346H115.159V32.0147H118.235Z" fill="#EBEBFF"/>
<path d="M130.407 12.0674H131.864V13.0921H130.407V12.0674Z" fill="white"/>
<path d="M127.778 12.0674H129.235V13.0921H127.778V12.0674Z" fill="white"/>
<path d="M125.15 12.0674H126.607V13.0921H125.15V12.0674Z" fill="white"/>
<path d="M122.522 12.0674H123.979V13.0921H122.522V12.0674Z" fill="white"/>
<path d="M119.893 12.0674H121.35V13.0921H119.893V12.0674Z" fill="white"/>
<path d="M130.407 13.7988H131.864V14.8236H130.407V13.7988Z" fill="white"/>
<path d="M127.778 13.7988H129.235V14.8236H127.778V13.7988Z" fill="white"/>
<path d="M125.15 13.7988H126.607V14.8236H125.15V13.7988Z" fill="white"/>
<path d="M122.522 13.7988H123.979V14.8236H122.522V13.7988Z" fill="white"/>
<path d="M119.893 13.7988H121.35V14.8236H119.893V13.7988Z" fill="white"/>
<path d="M130.407 15.5302H131.864V16.5549H130.407V15.5302Z" fill="white"/>
<path d="M127.778 15.5302H129.235V16.5549H127.778V15.5302Z" fill="white"/>
<path d="M125.15 15.5302H126.607V16.5549H125.15V15.5302Z" fill="white"/>
<path d="M122.522 15.5302H123.979V16.5549H122.522V15.5302Z" fill="white"/>
<path d="M119.893 15.5302H121.35V16.5549H119.893V15.5302Z" fill="white"/>
<path d="M130.407 17.2614H131.864V18.2861H130.407V17.2614Z" fill="white"/>
<path d="M127.778 17.2614H129.235V18.2861H127.778V17.2614Z" fill="white"/>
<path d="M119.893 17.2614H121.35V18.2861H119.893V17.2614Z" fill="white"/>
<path d="M130.407 18.9929H131.864V20.0177H130.407V18.9929Z" fill="white"/>
<path d="M127.778 18.9929H129.235V20.0177H127.778V18.9929Z" fill="white"/>
<path d="M125.15 18.9929H126.607V20.0177H125.15V18.9929Z" fill="white"/>
<path d="M122.522 18.9929H123.979V20.0177H122.522V18.9929Z" fill="white"/>
<path d="M119.893 18.9929H121.35V20.0177H119.893V18.9929Z" fill="white"/>
<path d="M130.407 20.7241H131.864V21.7489H130.407V20.7241Z" fill="white"/>
<path d="M127.778 20.7241H129.235V21.7489H127.778V20.7241Z" fill="white"/>
<path d="M125.15 20.7241H126.607V21.7489H125.15V20.7241Z" fill="white"/>
<path d="M122.522 20.7241H123.979V21.7489H122.522V20.7241Z" fill="white"/>
<path d="M119.893 20.7241H121.35V21.7489H119.893V20.7241Z" fill="white"/>
<path d="M130.407 22.4554H131.864V23.4802H130.407V22.4554Z" fill="white"/>
<path d="M125.15 22.4554H126.607V23.4802H125.15V22.4554Z" fill="white"/>
<path d="M122.522 22.4554H123.979V23.4802H122.522V22.4554Z" fill="white"/>
<path d="M119.893 22.4554H121.35V23.4802H119.893V22.4554Z" fill="white"/>
<path d="M130.407 24.1869H131.864V25.2116H130.407V24.1869Z" fill="white"/>
<path d="M122.522 24.1869H123.979V25.2116H122.522V24.1869Z" fill="white"/>
<path d="M119.893 24.1869H121.35V25.2116H119.893V24.1869Z" fill="white"/>
<path d="M130.407 25.9182H131.864V26.9429H130.407V25.9182Z" fill="white"/>
<path d="M122.522 25.9182H123.979V26.9429H122.522V25.9182Z" fill="white"/>
<path d="M119.893 25.9182H121.35V26.9429H119.893V25.9182Z" fill="white"/>
<path d="M130.407 27.6495H131.864V28.6743H130.407V27.6495Z" fill="white"/>
<path d="M127.778 27.6495H129.235V28.6743H127.778V27.6495Z" fill="white"/>
<path d="M125.15 27.6495H126.607V28.6743H125.15V27.6495Z" fill="white"/>
<path d="M122.522 27.6495H123.979V28.6743H122.522V27.6495Z" fill="white"/>
<path d="M130.407 29.381H131.864V30.4057H130.407V29.381Z" fill="white"/>
<path d="M127.778 29.381H129.235V30.4057H127.778V29.381Z" fill="white"/>
<path d="M125.15 29.381H126.607V30.4057H125.15V29.381Z" fill="white"/>
<path d="M119.893 29.381H121.35V30.4057H119.893V29.381Z" fill="white"/>
<path d="M133.141 33.3779H134.65V34.4027H133.141V33.3779Z" fill="white"/>
<path d="M130.469 33.3779H131.978V34.4027H130.469V33.3779Z" fill="white"/>
<path d="M127.797 33.3779H129.306V34.4027H127.797V33.3779Z" fill="white"/>
<path d="M125.124 33.3779H126.633V34.4027H125.124V33.3779Z" fill="white"/>
<path d="M122.452 33.3779H123.961V34.4027H122.452V33.3779Z" fill="white"/>
<path d="M133.141 35.0367H134.65V36.0615H133.141V35.0367Z" fill="white"/>
<path d="M130.469 35.0367H131.978V36.0615H130.469V35.0367Z" fill="white"/>
<path d="M127.797 35.0367H129.306V36.0615H127.797V35.0367Z" fill="white"/>
<path d="M125.124 35.0367H126.633V36.0615H125.124V35.0367Z" fill="white"/>
<path d="M122.452 35.0367H123.961V36.0615H122.452V35.0367Z" fill="white"/>
<path d="M119.779 35.0367H121.288V36.0615H119.779V35.0367Z" fill="white"/>
<path d="M133.141 36.6956H134.65V37.7203H133.141V36.6956Z" fill="white"/>
<path d="M130.469 36.6956H131.978V37.7203H130.469V36.6956Z" fill="white"/>
<path d="M127.797 36.6956H129.306V37.7203H127.797V36.6956Z" fill="white"/>
<path d="M125.124 36.6956H126.633V37.7203H125.124V36.6956Z" fill="white"/>
<path d="M122.452 36.6956H123.961V37.7203H122.452V36.6956Z" fill="white"/>
<path d="M119.779 36.6956H121.288V37.7203H119.779V36.6956Z" fill="white"/>
<path d="M117.107 36.6956H118.616V37.7203H117.107V36.6956Z" fill="white"/>
<path d="M133.141 38.3542H134.65V39.379H133.141V38.3542Z" fill="white"/>
<path d="M127.797 38.3542H129.306V39.379H127.797V38.3542Z" fill="white"/>
<path d="M125.124 38.3542H126.633V39.379H125.124V38.3542Z" fill="white"/>
<path d="M122.452 38.3542H123.961V39.379H122.452V38.3542Z" fill="white"/>
<path d="M119.779 38.3542H121.288V39.379H119.779V38.3542Z" fill="white"/>
<path d="M117.107 38.3542H118.616V39.379H117.107V38.3542Z" fill="white"/>
<path d="M133.141 40.0131H134.65V41.0378H133.141V40.0131Z" fill="white"/>
<path d="M130.469 40.0129H131.978V41.0377H130.469V40.0129Z" fill="white"/>
<path d="M127.797 40.0129H129.306V41.0377H127.797V40.0129Z" fill="white"/>
<path d="M125.124 40.0129H126.633V41.0377H125.124V40.0129Z" fill="white"/>
<path d="M122.452 40.0129H123.961V41.0377H122.452V40.0129Z" fill="white"/>
<path d="M119.779 40.0129H121.288V41.0377H119.779V40.0129Z" fill="white"/>
<path d="M117.107 40.0129H118.616V41.0377H117.107V40.0129Z" fill="white"/>
<path d="M133.141 41.6718H134.65V42.6965H133.141V41.6718Z" fill="white"/>
<path d="M130.469 41.6718H131.978V42.6965H130.469V41.6718Z" fill="white"/>
<path d="M127.797 41.6718H129.306V42.6965H127.797V41.6718Z" fill="white"/>
<path d="M125.124 41.6718H126.633V42.6965H125.124V41.6718Z" fill="white"/>
<path d="M119.779 41.6718H121.288V42.6965H119.779V41.6718Z" fill="white"/>
<path d="M117.107 41.6718H118.616V42.6965H117.107V41.6718Z" fill="white"/>
<path d="M133.141 43.3306H134.65V44.3553H133.141V43.3306Z" fill="white"/>
<path d="M130.469 43.3304H131.978V44.3552H130.469V43.3304Z" fill="white"/>
<path d="M127.797 43.3304H129.306V44.3552H127.797V43.3304Z" fill="white"/>
<path d="M119.779 43.3304H121.288V44.3552H119.779V43.3304Z" fill="white"/>
<path d="M117.107 43.3304H118.616V44.3552H117.107V43.3304Z" fill="white"/>
<path d="M133.141 44.9893H134.65V46.014H133.141V44.9893Z" fill="white"/>
<path d="M130.469 44.9893H131.978V46.014H130.469V44.9893Z" fill="white"/>
<path d="M127.797 44.9893H129.306V46.014H127.797V44.9893Z" fill="white"/>
<path d="M119.779 44.9893H121.288V46.014H119.779V44.9893Z" fill="white"/>
<path d="M117.107 44.9893H118.616V46.014H117.107V44.9893Z" fill="white"/>
<path d="M133.141 46.6482H134.65V47.6729H133.141V46.6482Z" fill="white"/>
<path d="M130.469 46.6482H131.978V47.6729H130.469V46.6482Z" fill="white"/>
<path d="M127.797 46.6482H129.306V47.6729H127.797V46.6482Z" fill="white"/>
<path d="M125.124 46.6482H126.633V47.6729H125.124V46.6482Z" fill="white"/>
<path d="M122.452 46.6482H123.961V47.6729H122.452V46.6482Z" fill="white"/>
<path d="M119.779 46.6482H121.288V47.6729H119.779V46.6482Z" fill="white"/>
<path d="M117.107 46.6482H118.616V47.6729H117.107V46.6482Z" fill="white"/>
<path d="M133.141 48.3069H134.65V49.3316H133.141V48.3069Z" fill="white"/>
<path d="M130.469 48.3069H131.978V49.3316H130.469V48.3069Z" fill="white"/>
<path d="M125.124 48.3069H126.633V49.3316H125.124V48.3069Z" fill="white"/>
<path d="M122.452 48.3069H123.961V49.3316H122.452V48.3069Z" fill="white"/>
<path d="M119.779 48.3069H121.288V49.3316H119.779V48.3069Z" fill="white"/>
<path d="M117.107 48.3069H118.616V49.3316H117.107V48.3069Z" fill="white"/>
<path d="M133.141 49.9657H134.65V50.9904H133.141V49.9657Z" fill="white"/>
<path d="M130.469 49.9656H131.978V50.9903H130.469V49.9656Z" fill="white"/>
<path d="M125.124 49.9656H126.633V50.9903H125.124V49.9656Z" fill="white"/>
<path d="M122.452 49.9656H123.961V50.9903H122.452V49.9656Z" fill="white"/>
<path d="M119.779 49.9656H121.288V50.9903H119.779V49.9656Z" fill="white"/>
<path d="M117.107 49.9656H118.616V50.9903H117.107V49.9656Z" fill="white"/>
<path d="M133.141 51.6244H134.65V52.6491H133.141V51.6244Z" fill="white"/>
<path d="M130.469 51.6244H131.978V52.6491H130.469V51.6244Z" fill="white"/>
<path d="M125.124 51.6244H126.633V52.6491H125.124V51.6244Z" fill="white"/>
<path d="M122.452 51.6244H123.961V52.6491H122.452V51.6244Z" fill="white"/>
<path d="M119.779 51.6244H121.288V52.6491H119.779V51.6244Z" fill="white"/>
<path d="M117.107 51.6244H118.616V52.6491H117.107V51.6244Z" fill="white"/>
<path d="M133.141 53.2832H134.65V54.3079H133.141V53.2832Z" fill="white"/>
<path d="M130.469 53.2832H131.978V54.3079H130.469V53.2832Z" fill="white"/>
<path d="M127.797 53.2832H129.306V54.3079H127.797V53.2832Z" fill="white"/>
<path d="M125.124 53.2832H126.633V54.3079H125.124V53.2832Z" fill="white"/>
<path d="M119.779 53.2832H121.288V54.3079H119.779V53.2832Z" fill="white"/>
<path d="M117.107 53.2832H118.616V54.3079H117.107V53.2832Z" fill="white"/>
<path d="M133.141 54.9419H134.65V55.9666H133.141V54.9419Z" fill="white"/>
<path d="M130.469 54.9419H131.978V55.9666H130.469V54.9419Z" fill="white"/>
<path d="M127.797 54.9419H129.306V55.9666H127.797V54.9419Z" fill="white"/>
<path d="M125.124 54.9419H126.633V55.9666H125.124V54.9419Z" fill="white"/>
<path d="M119.779 54.9419H121.288V55.9666H119.779V54.9419Z" fill="white"/>
<path d="M117.107 54.9419H118.616V55.9666H117.107V54.9419Z" fill="white"/>
<path d="M133.141 56.6008H134.65V57.6256H133.141V56.6008Z" fill="white"/>
<path d="M130.469 56.6008H131.978V57.6256H130.469V56.6008Z" fill="white"/>
<path d="M127.797 56.6008H129.306V57.6256H127.797V56.6008Z" fill="white"/>
<path d="M117.107 56.6008H118.616V57.6256H117.107V56.6008Z" fill="white"/>
<path d="M133.141 58.2595H134.65V59.2843H133.141V58.2595Z" fill="white"/>
<path d="M130.469 58.2595H131.978V59.2843H130.469V58.2595Z" fill="white"/>
<path d="M127.797 58.2595H129.306V59.2843H127.797V58.2595Z" fill="white"/>
<path d="M122.452 58.2595H123.961V59.2843H122.452V58.2595Z" fill="white"/>
<path d="M119.779 58.2595H121.288V59.2843H119.779V58.2595Z" fill="white"/>
<path d="M117.107 58.2595H118.616V59.2843H117.107V58.2595Z" fill="white"/>
<path d="M133.141 59.9182H134.65V60.9429H133.141V59.9182Z" fill="white"/>
<path d="M127.797 59.9183H129.306V60.9431H127.797V59.9183Z" fill="white"/>
<path d="M125.124 59.9183H126.633V60.9431H125.124V59.9183Z" fill="white"/>
<path d="M122.452 59.9183H123.961V60.9431H122.452V59.9183Z" fill="white"/>
<path d="M119.779 59.9183H121.288V60.9431H119.779V59.9183Z" fill="white"/>
<path d="M117.107 59.9183H118.616V60.9431H117.107V59.9183Z" fill="white"/>
<path d="M133.141 61.577H134.65V62.6018H133.141V61.577Z" fill="white"/>
<path d="M130.469 61.577H131.978V62.6018H130.469V61.577Z" fill="white"/>
<path d="M127.797 61.577H129.306V62.6018H127.797V61.577Z" fill="white"/>
<path d="M125.124 61.577H126.633V62.6018H125.124V61.577Z" fill="white"/>
<path d="M122.452 61.577H123.961V62.6018H122.452V61.577Z" fill="white"/>
<path d="M119.779 61.577H121.288V62.6018H119.779V61.577Z" fill="white"/>
<path d="M117.107 61.577H118.616V62.6018H117.107V61.577Z" fill="white"/>
<path d="M53.8014 39.7316H76.5518V75.5196H53.8014V39.7316Z" fill="#EBEBFF"/>
<path d="M56.4814 42.541H69.3078V43.0797H56.4814V42.541Z" fill="white"/>
<path d="M70.5962 42.541H73.8717V43.0797H70.5962V42.541Z" fill="white"/>
<path d="M56.4814 44.4427H69.3078V44.9814H56.4814V44.4427Z" fill="white"/>
<path d="M70.5962 44.4427H73.8717V44.9814H70.5962V44.4427Z" fill="white"/>
<path d="M56.4814 46.3446H69.3078V46.8833H56.4814V46.3446Z" fill="white"/>
<path d="M70.5962 46.3445H73.8717V46.8832H70.5962V46.3445Z" fill="white"/>
<path d="M56.4814 48.2465H69.3078V48.7851H56.4814V48.2465Z" fill="white"/>
<path d="M70.5962 48.2465H73.8717V48.7851H70.5962V48.2465Z" fill="white"/>
<path d="M56.4814 50.1483H69.3078V50.687H56.4814V50.1483Z" fill="white"/>
<path d="M70.5962 50.1483H73.8717V50.687H70.5962V50.1483Z" fill="white"/>
<path d="M56.4814 52.05H69.3078V52.5887H56.4814V52.05Z" fill="white"/>
<path d="M70.5962 52.0502H73.8717V52.5888H70.5962V52.0502Z" fill="white"/>
<path d="M56.4814 53.9519H69.3078V54.4906H56.4814V53.9519Z" fill="white"/>
<path d="M70.5962 53.952H73.8717V54.4907H70.5962V53.952Z" fill="white"/>
<path d="M56.4814 55.8539H69.3078V56.3926H56.4814V55.8539Z" fill="white"/>
<path d="M70.5962 55.8539H73.8717V56.3926H70.5962V55.8539Z" fill="white"/>
<path d="M56.4814 57.7555H69.3078V58.2942H56.4814V57.7555Z" fill="white"/>
<path d="M70.5962 57.7555H73.8717V58.2942H70.5962V57.7555Z" fill="white"/>
<path d="M56.4814 59.6573H69.3078V60.196H56.4814V59.6573Z" fill="white"/>
<path d="M70.5962 59.6573H73.8717V60.196H70.5962V59.6573Z" fill="white"/>
<path d="M83.6389 21.9138H96.4654V22.4525H83.6389V21.9138Z" fill="white"/>
<path d="M97.7537 21.9138H101.029V22.4525H97.7537V21.9138Z" fill="white"/>
<path d="M83.6389 23.8157H96.4654V24.3543H83.6389V23.8157Z" fill="white"/>
<path d="M97.7537 23.8157H101.029V24.3543H97.7537V23.8157Z" fill="white"/>
<path d="M83.6389 25.7174H96.4654V26.2561H83.6389V25.7174Z" fill="white"/>
<path d="M97.7537 25.7174H101.029V26.2561H97.7537V25.7174Z" fill="white"/>
<path d="M83.6389 27.6193H96.4654V28.1579H83.6389V27.6193Z" fill="white"/>
<path d="M97.7537 27.6193H101.029V28.1579H97.7537V27.6193Z" fill="white"/>
<path d="M83.6389 29.5211H96.4654V30.0598H83.6389V29.5211Z" fill="white"/>
<path d="M97.7537 29.5211H101.029V30.0598H97.7537V29.5211Z" fill="white"/>
<path d="M83.6389 31.4229H96.4654V31.9615H83.6389V31.4229Z" fill="white"/>
<path d="M97.7537 31.423H101.029V31.9616H97.7537V31.423Z" fill="white"/>
<path d="M83.6389 33.3247H96.4654V33.8634H83.6389V33.3247Z" fill="white"/>
<path d="M97.7537 33.3248H101.029V33.8635H97.7537V33.3248Z" fill="white"/>
<path d="M83.6389 35.2267H96.4654V35.7654H83.6389V35.2267Z" fill="white"/>
<path d="M97.7537 35.2267H101.029V35.7654H97.7537V35.2267Z" fill="white"/>
<path d="M83.6389 37.1285H96.4654V37.6672H83.6389V37.1285Z" fill="white"/>
<path d="M97.7537 37.1285H101.029V37.6672H97.7537V37.1285Z" fill="white"/>
<path d="M83.6389 39.0304H96.4654V39.5691H83.6389V39.0304Z" fill="white"/>
<path d="M97.7537 39.0304H101.029V39.5691H97.7537V39.0304Z" fill="white"/>
<path d="M83.6389 40.932H96.4654V41.4707H83.6389V40.932Z" fill="white"/>
<path d="M97.7537 40.9321H101.029V41.4708H97.7537V40.9321Z" fill="white"/>
<path d="M83.6389 42.8339H96.4654V43.3725H83.6389V42.8339Z" fill="white"/>
<path d="M97.7537 42.8339H101.029V43.3725H97.7537V42.8339Z" fill="white"/>
<path d="M83.6389 44.7358H96.4654V45.2745H83.6389V44.7358Z" fill="white"/>
<path d="M97.7537 44.7358H101.029V45.2745H97.7537V44.7358Z" fill="white"/>
<path d="M83.6389 46.6377H96.4654V47.1764H83.6389V46.6377Z" fill="white"/>
<path d="M97.7537 46.6377H101.029V47.1764H97.7537V46.6377Z" fill="white"/>
<path d="M83.6389 48.5396H96.4654V49.0782H83.6389V48.5396Z" fill="white"/>
<path d="M97.7537 48.5396H101.029V49.0782H97.7537V48.5396Z" fill="white"/>
<path d="M83.6389 50.4414H96.4654V50.9801H83.6389V50.4414Z" fill="white"/>
<path d="M97.7537 50.4414H101.029V50.9801H97.7537V50.4414Z" fill="white"/>
<path d="M83.6389 52.3433H96.4654V52.8819H83.6389V52.3433Z" fill="white"/>
<path d="M97.7537 52.3433H101.029V52.8819H97.7537V52.3433Z" fill="white"/>
<path d="M83.6389 54.245H96.4654V54.7837H83.6389V54.245Z" fill="white"/>
<path d="M97.7537 54.2449H101.029V54.7835H97.7537V54.2449Z" fill="white"/>
<path d="M83.6389 56.1467H96.4654V56.6854H83.6389V56.1467Z" fill="white"/>
<path d="M97.7537 56.1467H101.029V56.6854H97.7537V56.1467Z" fill="white"/>
<path d="M83.6389 58.0486H96.4654V58.5873H83.6389V58.0486Z" fill="white"/>
<path d="M97.7537 58.0486H101.029V58.5873H97.7537V58.0486Z" fill="white"/>
<path d="M83.6389 59.9506H96.4654V60.4892H83.6389V59.9506Z" fill="white"/>
<path d="M97.7537 59.9506H101.029V60.4892H97.7537V59.9506Z" fill="white"/>
<path d="M156.874 57.2957V67.2314H161.018V59.1203C162.406 59.2008 165.387 58.745 165.387 53.3684L163.004 53.8576C163.004 53.8576 163.66 57.1265 161.018 57.609V50.3541H156.874V55.7911C156.193 55.5549 155.509 54.9081 155.509 53.2561H153.707C153.707 53.2561 152.799 56.6825 156.874 57.2957Z" fill="#DEDEFF"/>
<path d="M136.204 60.6468V70.5825H139.777V62.4714C140.974 62.5518 143.546 62.0961 143.546 56.7194L141.49 57.2087C141.49 57.2087 142.056 60.4776 139.777 60.9601V53.7052H136.204V59.1422C135.617 58.906 135.027 58.2592 135.027 56.6072H133.473C133.473 56.6072 132.69 60.0336 136.204 60.6468Z" fill="#DEDEFF"/>
<path d="M152.38 54.1981H166.627C168.988 54.1981 170.901 52.9229 170.901 51.3498V28.6667C170.901 27.0936 168.988 25.8184 166.627 25.8184H152.38C150.02 25.8184 148.106 27.0936 148.106 28.6667V51.3498C148.106 52.9229 150.02 54.1981 152.38 54.1981Z" fill="#D4D4FC"/>
<path d="M134.859 57.5491H142.245C144.606 57.5491 146.52 56.2739 146.52 54.7008V41.4238C146.52 39.8507 144.606 38.5754 142.245 38.5754H134.859C132.499 38.5754 130.585 39.8507 130.585 41.4238V54.7008C130.585 56.2739 132.499 57.5491 134.859 57.5491Z" fill="#D4D4FC"/>
<path d="M37.0477 57.2957V67.2314H41.191V59.1203C42.5788 59.2008 45.5606 58.745 45.5606 53.3684L43.1772 53.8576C43.1772 53.8576 43.8334 57.1265 41.191 57.609V50.3541H37.0477V55.7911C36.3664 55.5549 35.6825 54.9081 35.6825 53.2561H33.8799C33.8799 53.2561 32.9722 56.6825 37.0477 57.2957Z" fill="#DEDEFF"/>
<path d="M37.0477 57.2957V67.2314H41.191V59.1203C42.5788 59.2008 45.5606 58.745 45.5606 53.3684L43.1772 53.8576C43.1772 53.8576 43.8334 57.1265 41.191 57.609V50.3541H37.0477V55.7911C36.3664 55.5549 35.6825 54.9081 35.6825 53.2561H33.8799C33.8799 53.2561 32.9722 56.6825 37.0477 57.2957Z" fill="#DEDEFF"/>
<path d="M20.2362 57.2957V67.2314H16.5746V59.1203C15.3482 59.2008 12.7131 58.745 12.7131 53.3684L14.8195 53.8576C14.8195 53.8576 14.2394 57.1265 16.5748 57.609V50.3541H20.2365V55.7911C20.8386 55.5549 21.443 54.9081 21.443 53.2561H23.036C23.036 53.2561 23.8378 56.6825 20.2362 57.2957Z" fill="#DEDEFF"/>
<path d="M56.6337 60.2616V70.5827H60.0714V62.1571C61.2228 62.2407 63.6968 61.7672 63.6968 56.1821L61.7194 56.6903C61.7194 56.6903 62.2637 60.086 60.0714 60.5871V53.0509H56.6337V58.6987C56.0686 58.4532 55.5011 57.7815 55.5011 56.0653H54.0054C54.0054 56.0653 53.2525 59.6246 56.6337 60.2616Z" fill="#DEDEFF"/>
<path d="M31.9962 54.1981H46.2432C48.6037 54.1981 50.5173 52.9229 50.5173 51.3498V30.0909C50.5173 28.5178 48.6037 27.2426 46.2432 27.2426H31.9962C29.6357 27.2426 27.7221 28.5178 27.7221 30.0909V51.3498C27.7221 52.9229 29.6357 54.1981 31.9962 54.1981Z" fill="#D4D4FC"/>
<path d="M14.475 54.1982H21.8614C24.2219 54.1982 26.1354 52.9229 26.1354 51.3498V38.0728C26.1354 36.4997 24.2219 35.2245 21.8614 35.2245H14.475C12.1145 35.2245 10.2009 36.4997 10.2009 38.0728V51.3498C10.2009 52.9229 12.1145 54.1982 14.475 54.1982Z" fill="#D4D4FC"/>
<path d="M56.4977 57.5491H61.1331C63.4936 57.5491 65.4072 56.2738 65.4072 54.7007V46.1729C65.4072 44.5998 63.4936 43.3246 61.1331 43.3246H56.4977C54.1372 43.3246 52.2237 44.5998 52.2237 46.1729V54.7007C52.2237 56.2738 54.1372 57.5491 56.4977 57.5491Z" fill="#D4D4FC"/>
<path d="M48.3683 69.0621L49.4752 69.5018L49.9855 68.1679L48.7543 67.8805L48.3683 69.0621Z" fill="#FFABAB"/>
<path d="M42.8216 62.755H49.6705L48.2906 66.3599L47.7959 67.6552L48.7543 67.8804L49.9855 68.1678L50.1186 67.8161L50.4646 66.9175L52.0574 62.755C52.1284 62.5684 52.1617 62.3797 52.1617 62.1953C52.1617 61.3461 51.4496 60.5912 50.4979 60.5912H41.3604V61.3424C41.3604 62.1226 42.0146 62.755 42.8216 62.755Z" fill="#292D32"/>
<path d="M44.2719 52.2655C44.2992 52.3463 44.3049 52.4349 44.2874 52.5216L44.0946 53.4594L45.5126 53.7343L45.6956 52.6571C45.8106 52.6835 45.9295 52.7079 46.0521 52.7362C46.169 52.7626 46.286 52.787 46.3989 52.8078C46.5158 52.8286 46.6267 52.7984 46.7086 52.7326C46.7106 52.7326 46.7106 52.7326 46.7126 52.7306C46.7358 52.7043 46.7594 52.6779 46.7847 52.6496C46.7867 52.6477 46.7884 52.6457 46.7884 52.644C47.4566 51.87 47.4098 51.5029 47.2676 51.2091C47.174 51.017 47.0573 50.8664 47.0573 50.6462C47.1702 49.8478 46.5819 49.2621 45.8321 49.0777C45.6451 49.0324 45.4463 49.0118 45.2458 49.0193C45.0452 49.0268 44.8522 49.0682 44.6712 49.1379H44.6692C44.5212 49.1943 44.381 49.2698 44.2544 49.362C43.8298 49.6672 43.5454 50.1493 43.5238 50.6858C43.5023 51.2338 43.7419 51.727 44.1335 52.0586C44.1998 52.1147 44.2446 52.1864 44.2719 52.2655Z" fill="#FFABAB"/>
<path d="M43.5242 50.6856C43.5027 51.2336 43.7422 51.7268 44.1338 52.0583C44.1999 52.1147 44.2447 52.1864 44.272 52.2655L44.9382 51.6762C44.9382 51.6762 44.6848 51.3937 45.0083 50.9927C45.2317 50.7157 45.4366 50.925 45.5418 51.0806C45.5704 51.1229 45.637 51.107 45.6443 51.0571C45.7395 50.4137 45.4874 50.0174 45.4874 50.0174L45.8322 49.0777C45.6452 49.0324 45.4464 49.0118 45.2459 49.0193C45.0453 49.0268 44.8523 49.0682 44.6713 49.1379H44.6693L44.2545 49.362C43.8301 49.6668 43.5457 50.1489 43.5242 50.6856Z" fill="black"/>
<path d="M46.8035 50.8432C46.8035 50.8915 46.8201 50.9307 46.8405 50.9307C46.8609 50.9307 46.8775 50.8915 46.8775 50.8432C46.8775 50.795 46.8609 50.7557 46.8405 50.7557C46.8199 50.756 46.8035 50.795 46.8035 50.8432Z" fill="black"/>
<path d="M46.9613 50.5348C46.9613 50.5348 46.9917 50.3348 46.6144 50.5055" stroke="black" stroke-width="0.25" stroke-miterlimit="10" stroke-linecap="round"/>
<path d="M46.0968 51.3759L45.166 50.8696L44.9741 51.8295L46.0968 52.5239" stroke="white" stroke-width="0.25" stroke-miterlimit="10" stroke-linecap="round"/>
<path d="M45.3785 51.0528C45.3785 51.0528 45.0116 50.3759 44.6646 50.7819C44.3177 51.1879 44.6402 52.1538 45.2734 51.8057" fill="#FFABAB"/>
<path d="M45.3785 51.0528C45.3785 51.0528 45.0116 50.3759 44.6646 50.7819C44.3177 51.1879 44.6402 52.1538 45.2734 51.8057" stroke="black" stroke-width="0.25" stroke-miterlimit="10" stroke-linecap="round"/>
<path d="M45.1655 51.4823C45.1655 51.4823 45.1959 50.8467 44.782 50.9704" stroke="black" stroke-width="0.25" stroke-miterlimit="10" stroke-linecap="round"/>
<path d="M44.9508 51.4057C44.9508 51.4057 44.8807 51.1451 45.0779 51.0667" stroke="black" stroke-width="0.25" stroke-miterlimit="10" stroke-linecap="round"/>
<path d="M46.0527 52.7362C46.1696 52.7626 46.2865 52.787 46.3994 52.8078C46.5163 52.8286 46.6272 52.7984 46.7091 52.7326C46.7111 52.7326 46.7111 52.7326 46.7131 52.7306C46.7364 52.7043 46.7599 52.6779 46.7852 52.6496C46.7872 52.6477 46.7892 52.6457 46.7892 52.644C47.4574 51.8701 47.4106 51.5029 47.2684 51.2091C47.0638 51.2336 46.4114 51.309 46.1638 51.3032C45.7683 51.2957 45.6689 51.9114 46.0527 52.7362Z" fill="#1EB2A6"/>
<path d="M43.4057 53.3685C44.0801 53.2913 44.8721 53.5121 45.5332 54.014H45.5354C45.6197 54.0719 45.7018 54.1319 45.7883 54.1962C45.9236 53.9174 46.2364 53.2098 46.2364 53.2098L43.9492 52.5514C43.9492 52.5514 43.6963 52.931 43.4057 53.3685Z" fill="#00742C"/>
<path d="M56.6939 72.9664C56.0033 71.3631 56.788 69.5222 58.4465 68.8546C60.105 68.1871 62.0093 68.9456 62.6999 70.5489C63.3905 72.1522 62.6058 73.9931 60.9473 74.6607C59.2888 75.3282 57.3845 74.5697 56.6939 72.9664Z" fill="#3D3D3D"/>
<path d="M57.8671 72.0506C57.7022 71.0711 58.3899 70.1478 59.4032 69.9885C60.4164 69.8291 61.3714 70.4939 61.5363 71.4734C61.7012 72.4529 61.0134 73.3762 60.0002 73.5355C58.987 73.6949 58.0319 73.0301 57.8671 72.0506Z" fill="#7A7A7A"/>
<path d="M59.6998 72.3596C59.3576 72.3596 59.0802 72.0914 59.0802 71.7606C59.0802 71.4298 59.3576 71.1616 59.6998 71.1616C60.042 71.1616 60.3194 71.4298 60.3194 71.7606C60.3194 72.0914 60.042 72.3596 59.6998 72.3596Z" fill="white"/>
<path d="M36.0628 72.9658C35.3723 71.3625 36.1569 69.5216 37.8155 68.854C39.474 68.1864 41.3783 68.945 42.0689 70.5483C42.7594 72.1516 41.9748 73.9925 40.3162 74.66C38.6577 75.3276 36.7534 74.5691 36.0628 72.9658Z" fill="#3D3D3D"/>
<path d="M37.2361 72.0509C37.0712 71.0714 37.7589 70.1482 38.7722 69.9888C39.7854 69.8294 40.7404 70.4943 40.9053 71.4738C41.0702 72.4533 40.3824 73.3765 39.3692 73.5359C38.356 73.6953 37.4009 73.0304 37.2361 72.0509Z" fill="#7A7A7A"/>
<path d="M39.0688 72.3596C38.7266 72.3596 38.4492 72.0914 38.4492 71.7606C38.4492 71.4298 38.7266 71.1616 39.0688 71.1616C39.411 71.1616 39.6884 71.4298 39.6884 71.7606C39.6884 72.0914 39.411 72.3596 39.0688 72.3596Z" fill="white"/>
<path d="M58.6831 69.9636H63.3417C63.3417 69.9636 61.9737 66.4178 57.4446 66.4178L58.6831 69.9636Z" fill="#206139"/>
<path d="M43.6302 52.1714C43.7285 52.2829 43.8716 52.3479 44.0231 52.3479H45.2836C45.6425 52.3479 45.9336 52.0666 45.9336 51.7196V49.9418H43.8751L43.6302 52.1714Z" fill="#206139"/>
<path opacity="0.2" d="M47.8487 49.9415C47.8487 49.9415 48.3232 51.1739 47.3558 52.5857L45.3253 51.8083L45.6764 49.771L47.8487 49.9415Z" fill="black"/>
<path d="M43.3942 49.1631C43.8268 48.6441 44.4767 48.3138 45.2044 48.3138C45.932 48.3138 46.5842 48.6441 47.0168 49.1631C47.2076 49.3882 47.3584 49.652 47.4516 49.9415H45.81V51.7193C45.81 52.0663 45.5189 52.3477 45.16 52.3477H43.8995C43.748 52.3477 43.6047 52.2829 43.5066 52.1712C43.1499 51.7659 42.8376 51.2506 42.8376 50.69C42.8374 50.1088 43.0459 49.5748 43.3942 49.1631Z" fill="#00742C"/>
<path d="M45.81 49.1631V49.9415H47.9707C48.0927 49.9415 48.126 49.7807 48.0151 49.7314L47.1787 49.3754L47.1654 49.1631H45.81Z" fill="#212121"/>
<path d="M46.0318 49.1631V49.8107C46.6197 49.3754 47.4006 49.3754 47.4006 49.3754L47.3873 49.1631H46.0318Z" fill="black"/>
<path d="M46.0968 49.4869C46.0509 49.4869 46.0136 49.4509 46.0136 49.4065C46.0136 49.3621 46.0509 49.326 46.0968 49.326C46.1428 49.326 46.18 49.3621 46.18 49.4065C46.18 49.4509 46.1428 49.4869 46.0968 49.4869Z" fill="white"/>
<path d="M52.4871 58.46C52.7473 58.8721 53.0471 59.3686 53.3618 59.9307H55.1743C55.8285 59.9307 56.3589 59.4179 56.3589 58.7855V58.7834C56.3589 58.1509 55.8285 57.6382 55.1743 57.6382H52.9661C52.5293 57.6382 52.2595 58.0995 52.4871 58.46Z" fill="#00742C"/>
<path d="M53.3619 59.9307C53.4639 60.1108 53.5659 60.2995 53.6702 60.4925H54.653C54.5354 60.306 54.4156 60.1194 54.2936 59.9307H53.3619Z" fill="#00742C"/>
<path d="M32.6909 71.4575H55.6046C55.649 71.2131 55.6845 70.9686 55.7089 70.7241H47.0172C47.0172 70.7241 46.0706 64.1125 43.8117 64.1125C41.0098 64.1125 42.6286 64.1125 38.6621 64.1125C33.338 64.1125 32.6909 71.4575 32.6909 71.4575Z" fill="#00742C"/>
<path d="M52.6764 61.0737C53.7013 62.5192 56.1437 66.4672 55.7089 70.7241C55.6845 70.9686 55.649 71.213 55.6047 71.4575H58.6035C59.2126 71.4575 59.6443 70.8832 59.4531 70.3241C58.8433 68.5416 57.3936 64.8348 54.653 60.4928H52.9936C52.6853 60.4926 52.5033 60.8271 52.6764 61.0737Z" fill="#00742C"/>
<path d="M34.2792 71.4575H43.8582C43.6985 69.0363 41.6155 67.1191 39.0687 67.1191C36.522 67.1191 34.439 69.0363 34.2792 71.4575Z" fill="#206139"/>
<path d="M42.3826 64.1126H44.2474C44.4885 64.1126 44.6842 63.9236 44.6842 63.6903C44.6842 63.087 44.1782 62.5979 43.5541 62.5979H41.7863C39.8589 62.5979 40.6771 61.9813 39.3321 61.9813H38.2437C37.9567 61.9813 37.7237 62.2063 37.7237 62.484C37.7237 63.3834 38.478 64.1126 39.4084 64.1126H42.3826Z" fill="#206139"/>
<path d="M38.7777 65.2116H41.412C41.5345 65.2116 41.6339 65.1155 41.6339 64.9971C41.6339 64.8788 41.5345 64.7827 41.412 64.7827H38.7777C37.9429 64.7827 37.2663 64.1286 37.2663 63.3216C37.2663 63.2033 37.1669 63.1072 37.0445 63.1072H28.9473C28.8249 63.1072 28.7255 63.2033 28.7255 63.3216C28.7255 63.44 28.8249 63.5361 28.9473 63.5361H36.8351C36.9458 64.4775 37.7748 65.2116 38.7777 65.2116Z" fill="#206139"/>
<path d="M29.0492 54.0333H34.2069C35.9936 54.0333 37.442 55.4335 37.442 57.1607V62.7542H27.792V55.2484C27.792 54.5774 28.3548 54.0333 29.0492 54.0333Z" fill="#206139"/>
<path d="M35.9563 62.7544H36.6101V63.3619H35.9563V62.7544Z" fill="#206139"/>
<path d="M32.5209 62.7544H33.1749V63.3619H32.5209V62.7544Z" fill="#206139"/>
<path d="M29.0862 62.7544H29.74V63.3619H29.0862V62.7544Z" fill="#206139"/>
<path d="M55.2493 57.4512H55.4711V60.1185H55.2493V57.4512Z" fill="#206139"/>
<path d="M41.3803 62.4677C43.4567 61.9616 45.5886 60.5612 45.5886 60.5612L45.3934 60.2117C45.8282 59.9822 45.5709 59.4761 45.5886 58.5111C45.6041 57.5461 45.7106 56.7011 45.7106 56.7011C45.7106 56.7011 45.7106 56.7011 45.7128 56.7033C47.6961 57.812 52.1439 58.7255 52.1439 58.7255L52.4035 57.827C52.4035 57.827 50.245 57.1021 48.2063 55.9505C47.1304 55.3415 46.4094 54.6702 45.7883 54.1963C45.7017 54.132 45.6197 54.0719 45.5354 54.014H45.5331C45.4622 53.9604 45.3889 53.9089 45.3135 53.8596H45.3113C44.699 53.4672 44.0069 53.2999 43.4057 53.3685C43.2371 53.6216 43.0552 53.8939 42.9021 54.1213C42.7712 54.3143 42.6625 54.4751 42.596 54.5652C42.596 54.5652 42.5938 54.5673 42.5938 54.5695C41.682 55.6739 40.9477 57.9449 41.3803 62.4677Z" fill="#36AE63"/>
<path d="M47.4986 70.7242H52.388V70.5033C52.388 70.4518 52.3835 70.4003 52.3747 70.3489C52.3148 69.9736 52.033 69.6626 51.6448 69.5597C50.9083 69.3602 49.8923 68.9764 49.9056 68.3738L49.9007 68.3727C49.6148 68.3131 49.3273 68.4662 49.2268 68.7317L48.193 68.5451L47.6184 70.3486L47.4986 70.7242Z" fill="#314499"/>
<path d="M47.4986 70.7242H52.388V70.5033C52.388 70.4518 52.3835 70.4003 52.3747 70.3489H47.6184L47.4986 70.7242Z" fill="white"/>
<path d="M54.2093 58.736C54.2153 58.736 54.2213 58.7353 54.2275 58.7341C54.2723 58.7244 54.3007 58.6815 54.2907 58.6382L53.6933 56.0354C53.6833 55.9921 53.6392 55.9653 53.5941 55.9743C53.5493 55.9839 53.5209 56.0268 53.5309 56.0701L54.1283 58.6729C54.1367 58.7105 54.1711 58.736 54.2093 58.736Z" fill="#206139"/>
<path d="M53.6824 59.1892C53.6538 59.3717 53.8102 59.534 54.0001 59.5143C54.2612 59.4873 54.5793 59.337 54.6529 58.7847C54.7823 57.8131 53.4417 57.697 52.943 58.0363L52.1617 57.795L51.9909 58.5278L52.7673 58.7256C52.7673 58.7256 53.1877 59.4483 53.5553 59.1892C53.9229 58.9301 53.6824 59.1892 53.6824 59.1892Z" fill="#FFABAB"/>
<path d="M53.3426 58.7844C53.3426 59.0619 53.5753 59.2867 53.8621 59.2867C54.1492 59.2867 54.3819 59.0617 54.3819 58.7844C54.3819 58.5069 54.1492 58.282 53.8621 58.282C53.575 58.2822 53.3426 58.5069 53.3426 58.7844Z" fill="#263238"/>
<path d="M45.7106 56.7011C45.7106 56.7011 45.7106 56.7011 45.7128 56.7033C47.6961 57.812 52.1439 58.7255 52.1439 58.7255L52.4035 57.827C52.4035 57.827 50.245 57.1021 48.2063 55.9505C47.1304 55.3415 46.4094 54.6702 45.7883 54.1963C45.7017 54.132 45.6197 54.0719 45.5354 54.014H45.5331C45.4622 53.9604 45.3889 53.9089 45.3135 53.8596H45.3113C44.1378 54.6531 44.3552 55.9848 45.7106 56.7011Z" fill="#00742C"/>
<path d="M53.2587 56.5889C53.6489 56.5889 53.9652 56.283 53.9652 55.9058V55.8063C53.9652 55.4291 53.6489 55.1233 53.2587 55.1233V56.5889Z" fill="#00742C"/>
<path d="M30.2063 57.3894L30.5546 57.7025C30.4769 57.9191 30.4348 58.1507 30.4348 58.393C30.4348 59.5575 31.4131 60.5033 32.6177 60.5033C33.82 60.5033 34.7984 59.5575 34.7984 58.393C34.7984 57.2307 33.82 56.285 32.6177 56.285C32.0143 56.285 31.4686 56.5209 31.0737 56.9026L30.6966 56.6667C31.1757 56.1692 31.859 55.8561 32.6177 55.8561C34.0641 55.8561 35.242 56.9948 35.242 58.393C35.242 59.7934 34.0641 60.9322 32.6177 60.9322C31.1691 60.9322 29.9911 59.7934 29.9911 58.393C29.9911 58.0371 30.0687 57.6982 30.2063 57.3894Z" fill="white"/>
<path d="M150.548 55.6285C150.576 55.7096 150.582 55.798 150.564 55.8846L150.371 56.8224L151.789 57.0973L151.972 56.0201C152.087 56.0465 152.206 56.0709 152.329 56.0993C152.446 56.1256 152.563 56.1501 152.675 56.1709C152.792 56.1917 152.903 56.1614 152.985 56.0956C152.987 56.0956 152.987 56.0956 152.989 56.0937C153.012 56.0673 153.036 56.0409 153.061 56.0126C153.063 56.0107 153.065 56.0088 153.065 56.007C153.733 55.2331 153.686 54.8659 153.544 54.5721C153.451 54.38 153.334 54.2294 153.334 54.0092C153.447 53.2108 152.859 52.6251 152.109 52.4407C151.922 52.3955 151.723 52.3749 151.522 52.3824C151.322 52.3899 151.129 52.4313 150.948 52.501H150.946C150.798 52.5574 150.658 52.6329 150.531 52.7251C150.106 53.03 149.822 53.5121 149.8 54.0489C149.779 54.5968 150.019 55.0903 150.41 55.4216C150.476 55.478 150.521 55.5494 150.548 55.6285Z" fill="#FFABAB"/>
<path d="M149.8 54.0487C149.779 54.5966 150.019 55.09 150.41 55.4214C150.476 55.478 150.521 55.5494 150.548 55.6285L151.214 55.0392C151.214 55.0392 150.961 54.7568 151.285 54.3558C151.508 54.0785 151.713 54.288 151.818 54.4437C151.847 54.4859 151.913 54.4701 151.921 54.4201C152.016 53.7767 151.764 53.3804 151.764 53.3804L152.108 52.4407C151.921 52.3955 151.723 52.3749 151.522 52.3824C151.322 52.3899 151.129 52.4313 150.948 52.501H150.946L150.531 52.7251C150.106 53.03 149.822 53.5121 149.8 54.0487Z" fill="black"/>
<path d="M153.08 54.2063C153.08 54.2545 153.096 54.2938 153.117 54.2938C153.137 54.2938 153.154 54.2547 153.154 54.2063C153.154 54.158 153.137 54.1188 153.117 54.1188C153.096 54.119 153.08 54.158 153.08 54.2063Z" fill="black"/>
<path d="M153.238 53.8981C153.238 53.8981 153.268 53.698 152.891 53.8687" stroke="black" stroke-width="0.25" stroke-miterlimit="10" stroke-linecap="round"/>
<path d="M149.929 53.4743H154.588V53.286H150.001C149.974 53.3538 149.949 53.4179 149.929 53.4743Z" fill="black"/>
<path d="M150.001 53.2861H152.758V52.6046C152.758 52.3241 152.522 52.098 152.234 52.098H151.162C150.796 52.098 150.461 52.3013 150.303 52.6215C150.194 52.8435 150.083 53.0826 150.001 53.2861Z" fill="#00742C"/>
<path d="M152.233 52.0978C152.522 52.0978 152.757 52.3238 152.757 52.6043V53.2858H153.334V52.6532C153.334 52.3463 153.077 52.0978 152.759 52.0978H152.233Z" fill="#36AE63"/>
<path d="M152.373 54.739L151.442 54.2327L151.25 55.1926L152.373 55.8869" stroke="white" stroke-width="0.25" stroke-miterlimit="10" stroke-linecap="round"/>
<path d="M151.655 54.4158C151.655 54.4158 151.288 53.739 150.941 54.1449C150.594 54.5509 150.917 55.5168 151.55 55.169" fill="#FFABAB"/>
<path d="M151.655 54.4158C151.655 54.4158 151.288 53.739 150.941 54.1449C150.594 54.5509 150.917 55.5168 151.55 55.169" stroke="black" stroke-width="0.25" stroke-miterlimit="10" stroke-linecap="round"/>
<path d="M151.442 54.8453C151.442 54.8453 151.472 54.2099 151.058 54.3334" stroke="black" stroke-width="0.25" stroke-miterlimit="10" stroke-linecap="round"/>
<path d="M151.227 54.769C151.227 54.769 151.157 54.5084 151.354 54.4299" stroke="black" stroke-width="0.25" stroke-miterlimit="10" stroke-linecap="round"/>
<path d="M152.329 56.0993C152.446 56.1256 152.563 56.1501 152.676 56.1709C152.793 56.1917 152.904 56.1614 152.985 56.0956C152.987 56.0956 152.987 56.0956 152.989 56.0937C153.013 56.0673 153.036 56.0409 153.061 56.0126C153.063 56.0107 153.065 56.0088 153.065 56.007C153.734 55.2331 153.687 54.8659 153.545 54.5721C153.34 54.5966 152.687 54.6721 152.44 54.6663C152.045 54.6588 151.945 55.2745 152.329 56.0993Z" fill="#206139"/>
<path d="M150.23 56.1772L152.527 56.767L152.462 57.6919L150.077 57.2898L150.23 56.1772Z" fill="#263238"/>
<path d="M149.634 60.4627V61.3012H155.022C155.022 61.3012 154.206 59.5748 153.161 58.2131L153.154 58.2066C152.384 57.203 151.488 56.3988 150.707 56.6369C148.988 57.1601 149.634 60.4627 149.634 60.4627Z" fill="#36AE63"/>
<path d="M151.996 60.0509C152.349 60.5291 152.655 60.9559 152.899 61.3012H155.022C155.022 61.3012 154.206 59.5748 153.161 58.213L153.154 58.2066C152.564 57.5118 151.888 57.6512 151.655 58.0136C151.422 58.376 151.073 58.8006 151.996 60.0509Z" fill="#206139"/>
<path d="M147.397 62.1172L149.864 61.8405L149.291 57.061C149.212 56.4065 148.6 55.9375 147.923 56.0134L146.681 56.1526L147.397 62.1172Z" fill="#00742C"/>
<path d="M158.395 63.028L161.217 64.1472L162.911 60.1543L160.645 59.2556C160.338 59.1337 159.987 59.2757 159.861 59.5723L158.395 63.028Z" fill="#263238"/>
<path d="M157.189 62.5497C157.331 62.6059 157.492 62.5405 157.551 62.4035L159.034 58.9066C159.093 58.7696 159.025 58.613 158.883 58.5569C158.741 58.5007 158.579 58.5663 158.521 58.7031L157.037 62.2C156.979 62.337 157.047 62.4936 157.189 62.5497Z" fill="#263238"/>
<path d="M101.516 66.5918H138.564V69.2724H101.516V66.5918Z" fill="#263238"/>
<path d="M99.2243 66.5918H137.602V42.7876C137.602 41.4848 136.51 40.4286 135.162 40.4286H101.664C100.317 40.4286 99.2243 41.4848 99.2243 42.7876V66.5918Z" fill="#00742C"/>
<path d="M139.654 49.2212H155.201C157.608 49.2212 159.813 50.5229 160.911 52.5924L164.019 60.5872L170.406 61.6187C171.096 61.7302 171.708 62.0326 172.194 62.4636C172.89 63.0834 173.318 63.9712 173.318 64.9427V70.0231H138.268V50.5615C138.268 49.8217 138.889 49.2212 139.654 49.2212ZM147.78 60.4263H162.18L159.502 53.1071C159.374 52.8604 159.225 52.6288 159.059 52.4122C158.136 51.192 156.658 50.4543 155.063 50.4543H147.78V60.4263Z" fill="#00742C"/>
<path d="M104.437 69.2724V69.5583C104.437 70.3479 105.1 70.988 105.916 70.988H173.318C173.931 70.988 174.428 70.5081 174.428 69.9158V68.3074C174.428 68.0112 174.179 67.7712 173.873 67.7712H173.318V69.2724H104.437Z" fill="#44596B"/>
<path d="M158.012 70.4519C158.012 70.6321 158.02 70.8122 158.036 70.9881H170.41C170.426 70.8122 170.435 70.6321 170.435 70.4519C170.435 70.0488 170.392 69.6542 170.315 69.2724C169.747 66.521 167.236 64.4473 164.223 64.4473C161.211 64.4473 158.699 66.521 158.131 69.2724C158.054 69.6542 158.012 70.0488 158.012 70.4519Z" fill="#44596B"/>
<path d="M159.121 70.4519C159.121 70.6342 159.132 70.8122 159.152 70.9881H169.294C169.314 70.8122 169.325 70.6342 169.325 70.4519C169.325 70.0445 169.274 69.6499 169.177 69.2724C168.631 67.1172 166.619 65.5195 164.223 65.5195C161.827 65.5195 159.815 67.1172 159.269 69.2724C159.172 69.6499 159.121 70.0445 159.121 70.4519Z" fill="#050505"/>
<path d="M116.75 74.9554C114.177 74.9554 112.091 72.9391 112.091 70.4519C112.091 67.9646 114.177 65.9484 116.75 65.9484C119.322 65.9484 121.408 67.9646 121.408 70.4519C121.408 72.9391 119.322 74.9554 116.75 74.9554Z" fill="#3D3D3D"/>
<path d="M116.75 73.0253C115.279 73.0253 114.087 71.8731 114.087 70.4518C114.087 69.0306 115.279 67.8784 116.75 67.8784C118.22 67.8784 119.412 69.0306 119.412 70.4518C119.412 71.8731 118.22 73.0253 116.75 73.0253Z" fill="#7A7A7A"/>
<path d="M116.75 71.3096C116.259 71.3096 115.862 70.9256 115.862 70.4518C115.862 69.978 116.259 69.594 116.75 69.594C117.24 69.594 117.637 69.978 117.637 70.4518C117.637 70.9256 117.24 71.3096 116.75 71.3096Z" fill="white"/>
<path d="M164.223 74.9554C161.65 74.9554 159.564 72.9391 159.564 70.4519C159.564 67.9646 161.65 65.9484 164.223 65.9484C166.796 65.9484 168.882 67.9646 168.882 70.4519C168.882 72.9391 166.796 74.9554 164.223 74.9554Z" fill="#3D3D3D"/>
<path d="M164.223 73.0253C162.753 73.0253 161.561 71.8731 161.561 70.4518C161.561 69.0306 162.753 67.8784 164.223 67.8784C165.693 67.8784 166.885 69.0306 166.885 70.4518C166.885 71.8731 165.693 73.0253 164.223 73.0253Z" fill="#7A7A7A"/>
<path d="M164.223 71.3096C163.733 71.3096 163.336 70.9256 163.336 70.4518C163.336 69.978 163.733 69.594 164.223 69.594C164.713 69.594 165.11 69.978 165.11 70.4518C165.11 70.9256 164.713 71.3096 164.223 71.3096Z" fill="white"/>
<path d="M123.016 65.3051H133.332C134.465 65.3051 135.384 66.1931 135.384 67.2887C135.384 68.3844 134.465 69.2724 133.332 69.2724H123.016C121.883 69.2724 120.964 68.3844 120.964 67.2887C120.964 66.1931 121.883 65.3051 123.016 65.3051Z" fill="#179B49"/>
<path d="M154.992 50.1862C156.698 50.1862 158.276 50.9753 159.263 52.2771C159.44 52.5087 159.598 52.7574 159.735 53.0212L162.597 60.6943H147.363V50.6151C147.363 50.3783 147.562 50.1862 147.807 50.1862H154.992ZM148.029 60.051H161.519L159.141 53.3086C158.943 52.9269 158.695 52.5794 158.409 52.2771C157.546 51.3635 156.319 50.8295 154.992 50.8295H148.181C148.097 50.8295 148.029 50.8956 148.029 50.9771V60.051Z" fill="#62B179"/>
<path d="M147.363 60.6943V68.2538H156.931C157.457 68.2538 157.925 67.9557 158.16 67.501C159.032 65.8004 160.649 64.518 162.597 64.0548V60.6943H147.363Z" fill="#00742C"/>
<path d="M148.177 63.0203V63.1573C148.177 63.1781 148.179 63.1989 148.182 63.2197C148.212 63.3964 148.37 63.53 148.562 63.53H149.973C150.165 63.53 150.323 63.3967 150.354 63.2197C150.357 63.1989 150.359 63.1781 150.359 63.1573V63.0203C150.359 62.8157 150.187 62.6493 149.973 62.6493H148.562C148.349 62.6495 148.177 62.8159 148.177 63.0203Z" fill="#00742C"/>
<path d="M148.182 63.2197C148.213 63.3964 148.37 63.53 148.562 63.53H149.973C150.165 63.53 150.323 63.3966 150.354 63.2197H148.182Z" fill="#8C5D11"/>
<path d="M132.861 64.9922H133.471V69.5851H132.861V64.9922Z" fill="white"/>
<path d="M122.878 64.9922H123.488V69.5851H122.878V64.9922Z" fill="white"/>
<path d="M161.667 60.2898H161.999C162.4 60.2898 162.726 59.9752 162.726 59.5873V58.0756C162.726 57.6876 162.4 57.373 161.999 57.373H161.667V60.2898Z" fill="#FFCC73"/>
<mask id="mask0_29_4539" style="mask-type:luminance" maskUnits="userSpaceOnUse" x="99" y="40" width="39" height="27">
<path d="M99.2243 66.5918H137.602V42.7876C137.602 41.4848 136.51 40.4286 135.162 40.4286H101.664C100.317 40.4286 99.2243 41.4848 99.2243 42.7876V66.5918Z" fill="white"/>
</mask>
<g mask="url(#mask0_29_4539)">
<path d="M139.433 42.5015H97.6714" stroke="white" stroke-width="0.25" stroke-miterlimit="10" stroke-linecap="round"/>
<path d="M139.433 46.1652H97.6714" stroke="white" stroke-width="0.25" stroke-miterlimit="10" stroke-linecap="round"/>
<path d="M139.433 49.8286H97.6714" stroke="white" stroke-width="0.25" stroke-miterlimit="10" stroke-linecap="round"/>
<path d="M139.433 53.4922H97.6714" stroke="white" stroke-width="0.25" stroke-miterlimit="10" stroke-linecap="round"/>
<path d="M139.433 57.1559H97.6714" stroke="white" stroke-width="0.25" stroke-miterlimit="10" stroke-linecap="round"/>
<path d="M139.433 60.8193H97.6714" stroke="white" stroke-width="0.25" stroke-miterlimit="10" stroke-linecap="round"/>
<path d="M139.433 64.4828H97.6714" stroke="white" stroke-width="0.25" stroke-miterlimit="10" stroke-linecap="round"/>
</g>
<path d="M104.992 62.3564H131.28C131.954 62.3564 132.5 61.8284 132.5 61.1769V46.1116C132.5 45.4601 131.954 44.9321 131.28 44.9321H104.992C104.318 44.9321 103.772 45.4601 103.772 46.1116V61.1769C103.772 61.8282 104.318 62.3564 104.992 62.3564Z" fill="#62B179"/>
<path d="M170.13 64.3452C170.029 64.7973 170.386 65.2234 170.864 65.2234H173.318V64.9424C173.318 63.971 172.89 63.0831 172.194 62.4634H171.153C170.799 62.4634 170.492 62.7029 170.418 63.0381L170.13 64.3452Z" fill="#FFCC73"/>
</svg>
