<svg width="175" height="69" viewBox="0 0 175 69" fill="none" xmlns="http://www.w3.org/2000/svg">
<path d="M147.776 23.0632H174.15V68.0976H147.776V23.0632Z" fill="#EBEBFF"/>
<path d="M150.883 25.7351H165.752V26.2474H150.883V25.7351Z" fill="white"/>
<path d="M167.246 25.7351H171.043V26.2474H167.246V25.7351Z" fill="white"/>
<path d="M150.883 27.5437H165.752V28.056H150.883V27.5437Z" fill="white"/>
<path d="M167.246 27.5437H171.043V28.056H167.246V27.5437Z" fill="white"/>
<path d="M150.883 29.3524H165.752V29.8647H150.883V29.3524Z" fill="white"/>
<path d="M167.246 29.3524H171.043V29.8647H167.246V29.3524Z" fill="white"/>
<path d="M150.883 31.1611H165.752V31.6734H150.883V31.1611Z" fill="white"/>
<path d="M167.246 31.1611H171.043V31.6734H167.246V31.1611Z" fill="white"/>
<path d="M150.883 32.97H165.752V33.4823H150.883V32.97Z" fill="white"/>
<path d="M167.246 32.97H171.043V33.4823H167.246V32.97Z" fill="white"/>
<path d="M150.883 34.7786H165.752V35.2909H150.883V34.7786Z" fill="white"/>
<path d="M167.246 34.7786H171.043V35.2909H167.246V34.7786Z" fill="white"/>
<path d="M150.883 36.5873H165.752V37.0996H150.883V36.5873Z" fill="white"/>
<path d="M167.246 36.5873H171.043V37.0996H167.246V36.5873Z" fill="white"/>
<path d="M150.883 38.396H165.752V38.9083H150.883V38.396Z" fill="white"/>
<path d="M167.246 38.396H171.043V38.9083H167.246V38.396Z" fill="white"/>
<path d="M150.883 40.2046H165.752V40.7169H150.883V40.2046Z" fill="white"/>
<path d="M167.246 40.2046H171.043V40.7169H167.246V40.2046Z" fill="white"/>
<path d="M150.883 42.0134H165.752V42.5257H150.883V42.0134Z" fill="white"/>
<path d="M167.246 42.0134H171.043V42.5257H167.246V42.0134Z" fill="white"/>
<path d="M150.883 43.8221H165.752V44.3344H150.883V43.8221Z" fill="white"/>
<path d="M167.246 43.8221H171.043V44.3344H167.246V43.8221Z" fill="white"/>
<path d="M150.883 45.6307H165.752V46.143H150.883V45.6307Z" fill="white"/>
<path d="M167.246 45.6307H171.043V46.143H167.246V45.6307Z" fill="white"/>
<path d="M150.883 47.4396H165.752V47.9519H150.883V47.4396Z" fill="white"/>
<path d="M167.246 47.4396H171.043V47.9519H167.246V47.4396Z" fill="white"/>
<path d="M150.883 49.2483H165.752V49.7606H150.883V49.2483Z" fill="white"/>
<path d="M167.246 49.2483H171.043V49.7606H167.246V49.2483Z" fill="white"/>
<path d="M150.883 51.057H165.752V51.5693H150.883V51.057Z" fill="white"/>
<path d="M167.246 51.057H171.043V51.5693H167.246V51.057Z" fill="white"/>
<path d="M150.883 52.8656H165.752V53.3779H150.883V52.8656Z" fill="white"/>
<path d="M167.246 52.8656H171.043V53.3779H167.246V52.8656Z" fill="white"/>
<path d="M150.883 54.6743H165.752V55.1866H150.883V54.6743Z" fill="white"/>
<path d="M167.246 54.6743H171.043V55.1866H167.246V54.6743Z" fill="white"/>
<path d="M76.6317 13.9691H99.3962V59.0035H76.6317V13.9691Z" fill="#EBEBFF"/>
<path d="M3.07907 31.0276V10.3428H15.5538V4.7804H15.8718V10.3428H18.3747V31.0276H21.4535V64.9985H2.86102e-05V31.0276H3.07907Z" fill="#EBEBFF"/>
<path d="M15.2579 12.0571H16.7158V13.0317H15.2579V12.0571Z" fill="white"/>
<path d="M12.628 12.0571H14.0859V13.0317H12.628V12.0571Z" fill="white"/>
<path d="M9.99806 12.0571H11.4559V13.0317H9.99806V12.0571Z" fill="white"/>
<path d="M7.36781 12.0571H8.82568V13.0317H7.36781V12.0571Z" fill="white"/>
<path d="M4.73791 12.0571H6.1958V13.0317H4.73791V12.0571Z" fill="white"/>
<path d="M15.2579 13.7039H16.7158V14.6784H15.2579V13.7039Z" fill="white"/>
<path d="M12.628 13.7039H14.0859V14.6784H12.628V13.7039Z" fill="white"/>
<path d="M9.99806 13.7039H11.4559V14.6784H9.99806V13.7039Z" fill="white"/>
<path d="M7.36781 13.7039H8.82568V14.6784H7.36781V13.7039Z" fill="white"/>
<path d="M4.73791 13.7039H6.1958V14.6784H4.73791V13.7039Z" fill="white"/>
<path d="M15.2579 15.3503H16.7158V16.3249H15.2579V15.3503Z" fill="white"/>
<path d="M12.628 15.3503H14.0859V16.3249H12.628V15.3503Z" fill="white"/>
<path d="M9.99806 15.3503H11.4559V16.3249H9.99806V15.3503Z" fill="white"/>
<path d="M7.36781 15.3503H8.82568V16.3249H7.36781V15.3503Z" fill="white"/>
<path d="M4.73791 15.3503H6.1958V16.3249H4.73791V15.3503Z" fill="white"/>
<path d="M15.2579 16.9968H16.7158V17.9714H15.2579V16.9968Z" fill="white"/>
<path d="M12.628 16.9968H14.0859V17.9714H12.628V16.9968Z" fill="white"/>
<path d="M4.73791 16.9968H6.1958V17.9714H4.73791V16.9968Z" fill="white"/>
<path d="M15.2579 18.6436H16.7158V19.6181H15.2579V18.6436Z" fill="white"/>
<path d="M12.628 18.6436H14.0859V19.6181H12.628V18.6436Z" fill="white"/>
<path d="M9.99806 18.6436H11.4559V19.6181H9.99806V18.6436Z" fill="white"/>
<path d="M7.36781 18.6436H8.82568V19.6181H7.36781V18.6436Z" fill="white"/>
<path d="M4.73791 18.6436H6.1958V19.6181H4.73791V18.6436Z" fill="white"/>
<path d="M15.2579 20.29H16.7158V21.2646H15.2579V20.29Z" fill="white"/>
<path d="M12.628 20.29H14.0859V21.2646H12.628V20.29Z" fill="white"/>
<path d="M9.99806 20.29H11.4559V21.2646H9.99806V20.29Z" fill="white"/>
<path d="M7.36781 20.29H8.82568V21.2646H7.36781V20.29Z" fill="white"/>
<path d="M4.73791 20.29H6.1958V21.2646H4.73791V20.29Z" fill="white"/>
<path d="M15.2579 21.9365H16.7158V22.9111H15.2579V21.9365Z" fill="white"/>
<path d="M9.99806 21.9365H11.4559V22.9111H9.99806V21.9365Z" fill="white"/>
<path d="M7.36781 21.9365H8.82568V22.9111H7.36781V21.9365Z" fill="white"/>
<path d="M4.73791 21.9365H6.1958V22.9111H4.73791V21.9365Z" fill="white"/>
<path d="M15.2579 23.5833H16.7158V24.5578H15.2579V23.5833Z" fill="white"/>
<path d="M7.36781 23.5833H8.82568V24.5578H7.36781V23.5833Z" fill="white"/>
<path d="M4.73791 23.5833H6.1958V24.5578H4.73791V23.5833Z" fill="white"/>
<path d="M15.2579 25.2297H16.7158V26.2043H15.2579V25.2297Z" fill="white"/>
<path d="M7.36781 25.2297H8.82568V26.2043H7.36781V25.2297Z" fill="white"/>
<path d="M4.73791 25.2297H6.1958V26.2043H4.73791V25.2297Z" fill="white"/>
<path d="M15.2579 26.8762H16.7158V27.8508H15.2579V26.8762Z" fill="white"/>
<path d="M12.628 26.8762H14.0859V27.8508H12.628V26.8762Z" fill="white"/>
<path d="M9.99806 26.8762H11.4559V27.8508H9.99806V26.8762Z" fill="white"/>
<path d="M7.36781 26.8762H8.82568V27.8508H7.36781V26.8762Z" fill="white"/>
<path d="M15.2579 28.5229H16.7158V29.4975H15.2579V28.5229Z" fill="white"/>
<path d="M12.628 28.5229H14.0859V29.4975H12.628V28.5229Z" fill="white"/>
<path d="M9.99806 28.5229H11.4559V29.4975H9.99806V28.5229Z" fill="white"/>
<path d="M4.73791 28.5229H6.1958V29.4975H4.73791V28.5229Z" fill="white"/>
<path d="M17.994 32.3242H19.5038V33.2988H17.994V32.3242Z" fill="white"/>
<path d="M15.3199 32.3242H16.8298V33.2988H15.3199V32.3242Z" fill="white"/>
<path d="M12.6459 32.3242H14.1558V33.2988H12.6459V32.3242Z" fill="white"/>
<path d="M9.97185 32.3242H11.4817V33.2988H9.97185V32.3242Z" fill="white"/>
<path d="M7.29777 32.3242H8.80762V33.2988H7.29777V32.3242Z" fill="white"/>
<path d="M17.994 33.9019H19.5038V34.8764H17.994V33.9019Z" fill="white"/>
<path d="M15.3199 33.9019H16.8298V34.8764H15.3199V33.9019Z" fill="white"/>
<path d="M12.6459 33.9019H14.1558V34.8764H12.6459V33.9019Z" fill="white"/>
<path d="M9.97185 33.9019H11.4817V34.8764H9.97185V33.9019Z" fill="white"/>
<path d="M7.29777 33.9019H8.80762V34.8764H7.29777V33.9019Z" fill="white"/>
<path d="M4.62393 33.9019H6.13354V34.8764H4.62393V33.9019Z" fill="white"/>
<path d="M17.994 35.4794H19.5038V36.4539H17.994V35.4794Z" fill="white"/>
<path d="M15.3199 35.4794H16.8298V36.4539H15.3199V35.4794Z" fill="white"/>
<path d="M12.6459 35.4794H14.1558V36.4539H12.6459V35.4794Z" fill="white"/>
<path d="M9.97185 35.4794H11.4817V36.4539H9.97185V35.4794Z" fill="white"/>
<path d="M7.29777 35.4794H8.80762V36.4539H7.29777V35.4794Z" fill="white"/>
<path d="M4.62393 35.4794H6.13354V36.4539H4.62393V35.4794Z" fill="white"/>
<path d="M1.94992 35.4794H3.45953V36.4539H1.94992V35.4794Z" fill="white"/>
<path d="M17.994 37.0569H19.5038V38.0314H17.994V37.0569Z" fill="white"/>
<path d="M12.6459 37.0569H14.1558V38.0314H12.6459V37.0569Z" fill="white"/>
<path d="M9.97185 37.0569H11.4817V38.0314H9.97185V37.0569Z" fill="white"/>
<path d="M7.29777 37.0569H8.80762V38.0314H7.29777V37.0569Z" fill="white"/>
<path d="M4.62393 37.0569H6.13354V38.0314H4.62393V37.0569Z" fill="white"/>
<path d="M1.94992 37.0569H3.45953V38.0314H1.94992V37.0569Z" fill="white"/>
<path d="M17.994 38.6343H19.5038V39.6088H17.994V38.6343Z" fill="white"/>
<path d="M15.3199 38.6344H16.8298V39.609H15.3199V38.6344Z" fill="white"/>
<path d="M12.6459 38.6344H14.1558V39.609H12.6459V38.6344Z" fill="white"/>
<path d="M9.97185 38.6344H11.4817V39.609H9.97185V38.6344Z" fill="white"/>
<path d="M7.29777 38.6344H8.80762V39.609H7.29777V38.6344Z" fill="white"/>
<path d="M4.62393 38.6344H6.13354V39.609H4.62393V38.6344Z" fill="white"/>
<path d="M1.94992 38.6344H3.45953V39.609H1.94992V38.6344Z" fill="white"/>
<path d="M17.994 40.2119H19.5038V41.1865H17.994V40.2119Z" fill="white"/>
<path d="M15.3199 40.2119H16.8298V41.1865H15.3199V40.2119Z" fill="white"/>
<path d="M12.6459 40.2119H14.1558V41.1865H12.6459V40.2119Z" fill="white"/>
<path d="M9.97185 40.2119H11.4817V41.1865H9.97185V40.2119Z" fill="white"/>
<path d="M4.62393 40.2119H6.13354V41.1865H4.62393V40.2119Z" fill="white"/>
<path d="M1.94992 40.2119H3.45953V41.1865H1.94992V40.2119Z" fill="white"/>
<path d="M17.994 41.7894H19.5038V42.764H17.994V41.7894Z" fill="white"/>
<path d="M15.3199 41.7894H16.8298V42.764H15.3199V41.7894Z" fill="white"/>
<path d="M12.6459 41.7894H14.1558V42.764H12.6459V41.7894Z" fill="white"/>
<path d="M4.62393 41.7894H6.13354V42.764H4.62393V41.7894Z" fill="white"/>
<path d="M1.94992 41.7894H3.45953V42.764H1.94992V41.7894Z" fill="white"/>
<path d="M17.994 43.3669H19.5038V44.3415H17.994V43.3669Z" fill="white"/>
<path d="M15.3199 43.3669H16.8298V44.3415H15.3199V43.3669Z" fill="white"/>
<path d="M12.6459 43.3669H14.1558V44.3415H12.6459V43.3669Z" fill="white"/>
<path d="M4.62393 43.3669H6.13354V44.3415H4.62393V43.3669Z" fill="white"/>
<path d="M1.94992 43.3669H3.45953V44.3415H1.94992V43.3669Z" fill="white"/>
<path d="M17.994 44.9446H19.5038V45.9191H17.994V44.9446Z" fill="white"/>
<path d="M15.3199 44.9446H16.8298V45.9191H15.3199V44.9446Z" fill="white"/>
<path d="M12.6459 44.9446H14.1558V45.9191H12.6459V44.9446Z" fill="white"/>
<path d="M9.97185 44.9446H11.4817V45.9191H9.97185V44.9446Z" fill="white"/>
<path d="M7.29777 44.9446H8.80762V45.9191H7.29777V44.9446Z" fill="white"/>
<path d="M4.62393 44.9446H6.13354V45.9191H4.62393V44.9446Z" fill="white"/>
<path d="M1.94992 44.9446H3.45953V45.9191H1.94992V44.9446Z" fill="white"/>
<path d="M17.994 46.5221H19.5038V47.4967H17.994V46.5221Z" fill="white"/>
<path d="M15.3199 46.5221H16.8298V47.4967H15.3199V46.5221Z" fill="white"/>
<path d="M9.97185 46.5221H11.4817V47.4967H9.97185V46.5221Z" fill="white"/>
<path d="M7.29777 46.5221H8.80762V47.4967H7.29777V46.5221Z" fill="white"/>
<path d="M4.62393 46.5221H6.13354V47.4967H4.62393V46.5221Z" fill="white"/>
<path d="M1.94992 46.5221H3.45953V47.4967H1.94992V46.5221Z" fill="white"/>
<path d="M17.994 48.0997H19.5038V49.0743H17.994V48.0997Z" fill="white"/>
<path d="M15.3199 48.0997H16.8298V49.0743H15.3199V48.0997Z" fill="white"/>
<path d="M9.97185 48.0997H11.4817V49.0743H9.97185V48.0997Z" fill="white"/>
<path d="M7.29777 48.0997H8.80762V49.0743H7.29777V48.0997Z" fill="white"/>
<path d="M4.62393 48.0997H6.13354V49.0743H4.62393V48.0997Z" fill="white"/>
<path d="M1.94992 48.0997H3.45953V49.0743H1.94992V48.0997Z" fill="white"/>
<path d="M17.994 49.6771H19.5038V50.6517H17.994V49.6771Z" fill="white"/>
<path d="M15.3199 49.6771H16.8298V50.6517H15.3199V49.6771Z" fill="white"/>
<path d="M9.97185 49.6771H11.4817V50.6517H9.97185V49.6771Z" fill="white"/>
<path d="M7.29777 49.6771H8.80762V50.6517H7.29777V49.6771Z" fill="white"/>
<path d="M4.62393 49.6771H6.13354V50.6517H4.62393V49.6771Z" fill="white"/>
<path d="M1.94992 49.6771H3.45953V50.6517H1.94992V49.6771Z" fill="white"/>
<path d="M17.994 51.2548H19.5038V52.2293H17.994V51.2548Z" fill="white"/>
<path d="M15.3199 51.2546H16.8298V52.2292H15.3199V51.2546Z" fill="white"/>
<path d="M12.6459 51.2546H14.1558V52.2292H12.6459V51.2546Z" fill="white"/>
<path d="M9.97185 51.2546H11.4817V52.2292H9.97185V51.2546Z" fill="white"/>
<path d="M4.62393 51.2546H6.13354V52.2292H4.62393V51.2546Z" fill="white"/>
<path d="M1.94992 51.2546H3.45953V52.2292H1.94992V51.2546Z" fill="white"/>
<path d="M17.994 52.8323H19.5038V53.8068H17.994V52.8323Z" fill="white"/>
<path d="M15.3199 52.8323H16.8298V53.8068H15.3199V52.8323Z" fill="white"/>
<path d="M12.6459 52.8323H14.1558V53.8068H12.6459V52.8323Z" fill="white"/>
<path d="M9.97185 52.8323H11.4817V53.8068H9.97185V52.8323Z" fill="white"/>
<path d="M4.62393 52.8323H6.13354V53.8068H4.62393V52.8323Z" fill="white"/>
<path d="M1.94992 52.8323H3.45953V53.8068H1.94992V52.8323Z" fill="white"/>
<path d="M17.994 54.4099H19.5038V55.3845H17.994V54.4099Z" fill="white"/>
<path d="M15.3199 54.4099H16.8298V55.3845H15.3199V54.4099Z" fill="white"/>
<path d="M12.6459 54.4099H14.1558V55.3845H12.6459V54.4099Z" fill="white"/>
<path d="M1.94992 54.4099H3.45953V55.3845H1.94992V54.4099Z" fill="white"/>
<path d="M17.994 55.9874H19.5038V56.962H17.994V55.9874Z" fill="white"/>
<path d="M15.3199 55.9874H16.8298V56.962H15.3199V55.9874Z" fill="white"/>
<path d="M12.6459 55.9874H14.1558V56.962H12.6459V55.9874Z" fill="white"/>
<path d="M7.29777 55.9874H8.80762V56.962H7.29777V55.9874Z" fill="white"/>
<path d="M4.62393 55.9874H6.13354V56.962H4.62393V55.9874Z" fill="white"/>
<path d="M1.94992 55.9874H3.45953V56.962H1.94992V55.9874Z" fill="white"/>
<path d="M17.994 57.5649H19.5038V58.5395H17.994V57.5649Z" fill="white"/>
<path d="M12.6459 57.5649H14.1558V58.5395H12.6459V57.5649Z" fill="white"/>
<path d="M9.97185 57.5649H11.4817V58.5395H9.97185V57.5649Z" fill="white"/>
<path d="M7.29777 57.5649H8.80762V58.5395H7.29777V57.5649Z" fill="white"/>
<path d="M4.62393 57.5649H6.13354V58.5395H4.62393V57.5649Z" fill="white"/>
<path d="M1.94992 57.5649H3.45953V58.5395H1.94992V57.5649Z" fill="white"/>
<path d="M17.994 59.1426H19.5038V60.1171H17.994V59.1426Z" fill="white"/>
<path d="M15.3199 59.1426H16.8298V60.1171H15.3199V59.1426Z" fill="white"/>
<path d="M12.6459 59.1426H14.1558V60.1171H12.6459V59.1426Z" fill="white"/>
<path d="M9.97185 59.1426H11.4817V60.1171H9.97185V59.1426Z" fill="white"/>
<path d="M7.29777 59.1426H8.80762V60.1171H7.29777V59.1426Z" fill="white"/>
<path d="M4.62393 59.1426H6.13354V60.1171H4.62393V59.1426Z" fill="white"/>
<path d="M1.94992 59.1426H3.45953V60.1171H1.94992V59.1426Z" fill="white"/>
<path d="M113.931 26.2472V5.56244H126.406V0H126.724V5.56244H129.227V26.2472H132.306V60.2181H110.853V26.2472H113.931Z" fill="#EBEBFF"/>
<path d="M126.111 7.27673H127.568V8.25129H126.111V7.27673Z" fill="white"/>
<path d="M123.48 7.27673H124.938V8.25129H123.48V7.27673Z" fill="white"/>
<path d="M120.85 7.27673H122.308V8.25129H120.85V7.27673Z" fill="white"/>
<path d="M118.22 7.27673H119.678V8.25129H118.22V7.27673Z" fill="white"/>
<path d="M115.59 7.27673H117.048V8.25129H115.59V7.27673Z" fill="white"/>
<path d="M126.111 8.92346H127.568V9.89802H126.111V8.92346Z" fill="white"/>
<path d="M123.48 8.92346H124.938V9.89802H123.48V8.92346Z" fill="white"/>
<path d="M120.85 8.92346H122.308V9.89802H120.85V8.92346Z" fill="white"/>
<path d="M118.22 8.92346H119.678V9.89802H118.22V8.92346Z" fill="white"/>
<path d="M115.59 8.92346H117.048V9.89802H115.59V8.92346Z" fill="white"/>
<path d="M126.111 10.5699H127.568V11.5445H126.111V10.5699Z" fill="white"/>
<path d="M123.48 10.5699H124.938V11.5445H123.48V10.5699Z" fill="white"/>
<path d="M120.85 10.5699H122.308V11.5445H120.85V10.5699Z" fill="white"/>
<path d="M118.22 10.5699H119.678V11.5445H118.22V10.5699Z" fill="white"/>
<path d="M115.59 10.5699H117.048V11.5445H115.59V10.5699Z" fill="white"/>
<path d="M126.111 12.2164H127.568V13.191H126.111V12.2164Z" fill="white"/>
<path d="M123.48 12.2164H124.938V13.191H123.48V12.2164Z" fill="white"/>
<path d="M115.59 12.2164H117.048V13.191H115.59V12.2164Z" fill="white"/>
<path d="M126.111 13.8632H127.568V14.8377H126.111V13.8632Z" fill="white"/>
<path d="M123.48 13.8632H124.938V14.8377H123.48V13.8632Z" fill="white"/>
<path d="M120.85 13.8632H122.308V14.8377H120.85V13.8632Z" fill="white"/>
<path d="M118.22 13.8632H119.678V14.8377H118.22V13.8632Z" fill="white"/>
<path d="M115.59 13.8632H117.048V14.8377H115.59V13.8632Z" fill="white"/>
<path d="M126.111 15.5096H127.568V16.4842H126.111V15.5096Z" fill="white"/>
<path d="M123.48 15.5096H124.938V16.4842H123.48V15.5096Z" fill="white"/>
<path d="M120.85 15.5096H122.308V16.4842H120.85V15.5096Z" fill="white"/>
<path d="M118.22 15.5096H119.678V16.4842H118.22V15.5096Z" fill="white"/>
<path d="M115.59 15.5096H117.048V16.4842H115.59V15.5096Z" fill="white"/>
<path d="M126.111 17.1561H127.568V18.1307H126.111V17.1561Z" fill="white"/>
<path d="M120.85 17.1561H122.308V18.1307H120.85V17.1561Z" fill="white"/>
<path d="M118.22 17.1561H119.678V18.1307H118.22V17.1561Z" fill="white"/>
<path d="M115.59 17.1561H117.048V18.1307H115.59V17.1561Z" fill="white"/>
<path d="M126.111 18.8029H127.568V19.7774H126.111V18.8029Z" fill="white"/>
<path d="M118.22 18.8029H119.678V19.7774H118.22V18.8029Z" fill="white"/>
<path d="M115.59 18.8029H117.048V19.7774H115.59V18.8029Z" fill="white"/>
<path d="M126.111 20.4493H127.568V21.4239H126.111V20.4493Z" fill="white"/>
<path d="M118.22 20.4493H119.678V21.4239H118.22V20.4493Z" fill="white"/>
<path d="M115.59 20.4493H117.048V21.4239H115.59V20.4493Z" fill="white"/>
<path d="M126.111 22.0958H127.568V23.0704H126.111V22.0958Z" fill="white"/>
<path d="M123.48 22.0958H124.938V23.0704H123.48V22.0958Z" fill="white"/>
<path d="M120.85 22.0958H122.308V23.0704H120.85V22.0958Z" fill="white"/>
<path d="M118.22 22.0958H119.678V23.0704H118.22V22.0958Z" fill="white"/>
<path d="M126.111 23.7426H127.568V24.7171H126.111V23.7426Z" fill="white"/>
<path d="M123.48 23.7426H124.938V24.7171H123.48V23.7426Z" fill="white"/>
<path d="M120.85 23.7426H122.308V24.7171H120.85V23.7426Z" fill="white"/>
<path d="M115.59 23.7426H117.048V24.7171H115.59V23.7426Z" fill="white"/>
<path d="M128.847 27.5437H130.356V28.5183H128.847V27.5437Z" fill="white"/>
<path d="M126.173 27.5437H127.682V28.5183H126.173V27.5437Z" fill="white"/>
<path d="M123.499 27.5437H125.008V28.5183H123.499V27.5437Z" fill="white"/>
<path d="M120.824 27.5437H122.334V28.5183H120.824V27.5437Z" fill="white"/>
<path d="M118.15 27.5437H119.66V28.5183H118.15V27.5437Z" fill="white"/>
<path d="M128.847 29.1215H130.356V30.096H128.847V29.1215Z" fill="white"/>
<path d="M126.173 29.1213H127.682V30.0959H126.173V29.1213Z" fill="white"/>
<path d="M123.499 29.1213H125.008V30.0959H123.499V29.1213Z" fill="white"/>
<path d="M120.824 29.1213H122.334V30.0959H120.824V29.1213Z" fill="white"/>
<path d="M118.15 29.1213H119.66V30.0959H118.15V29.1213Z" fill="white"/>
<path d="M115.476 29.1213H116.986V30.0959H115.476V29.1213Z" fill="white"/>
<path d="M128.847 30.699H130.356V31.6735H128.847V30.699Z" fill="white"/>
<path d="M126.173 30.699H127.682V31.6735H126.173V30.699Z" fill="white"/>
<path d="M123.499 30.699H125.008V31.6735H123.499V30.699Z" fill="white"/>
<path d="M120.824 30.699H122.334V31.6735H120.824V30.699Z" fill="white"/>
<path d="M118.15 30.699H119.66V31.6735H118.15V30.699Z" fill="white"/>
<path d="M115.476 30.699H116.986V31.6735H115.476V30.699Z" fill="white"/>
<path d="M112.802 30.699H114.312V31.6735H112.802V30.699Z" fill="white"/>
<path d="M128.847 32.2765H130.356V33.251H128.847V32.2765Z" fill="white"/>
<path d="M123.499 32.2765H125.008V33.251H123.499V32.2765Z" fill="white"/>
<path d="M120.824 32.2765H122.334V33.251H120.824V32.2765Z" fill="white"/>
<path d="M118.15 32.2765H119.66V33.251H118.15V32.2765Z" fill="white"/>
<path d="M115.476 32.2765H116.986V33.251H115.476V32.2765Z" fill="white"/>
<path d="M112.802 32.2765H114.312V33.251H112.802V32.2765Z" fill="white"/>
<path d="M128.847 33.8539H130.356V34.8284H128.847V33.8539Z" fill="white"/>
<path d="M126.173 33.8539H127.682V34.8284H126.173V33.8539Z" fill="white"/>
<path d="M123.499 33.8539H125.008V34.8284H123.499V33.8539Z" fill="white"/>
<path d="M120.824 33.8539H122.334V34.8284H120.824V33.8539Z" fill="white"/>
<path d="M118.15 33.8539H119.66V34.8284H118.15V33.8539Z" fill="white"/>
<path d="M115.476 33.8539H116.986V34.8284H115.476V33.8539Z" fill="white"/>
<path d="M112.802 33.8539H114.312V34.8284H112.802V33.8539Z" fill="white"/>
<path d="M128.847 35.4315H130.356V36.4061H128.847V35.4315Z" fill="white"/>
<path d="M126.173 35.4315H127.682V36.4061H126.173V35.4315Z" fill="white"/>
<path d="M123.499 35.4315H125.008V36.4061H123.499V35.4315Z" fill="white"/>
<path d="M120.824 35.4315H122.334V36.4061H120.824V35.4315Z" fill="white"/>
<path d="M115.476 35.4315H116.986V36.4061H115.476V35.4315Z" fill="white"/>
<path d="M112.802 35.4315H114.312V36.4061H112.802V35.4315Z" fill="white"/>
<path d="M128.847 37.009H130.356V37.9836H128.847V37.009Z" fill="white"/>
<path d="M126.173 37.009H127.682V37.9836H126.173V37.009Z" fill="white"/>
<path d="M123.499 37.009H125.008V37.9836H123.499V37.009Z" fill="white"/>
<path d="M115.476 37.009H116.986V37.9836H115.476V37.009Z" fill="white"/>
<path d="M112.802 37.009H114.312V37.9836H112.802V37.009Z" fill="white"/>
<path d="M128.847 38.5865H130.356V39.5611H128.847V38.5865Z" fill="white"/>
<path d="M126.173 38.5865H127.682V39.5611H126.173V38.5865Z" fill="white"/>
<path d="M123.499 38.5865H125.008V39.5611H123.499V38.5865Z" fill="white"/>
<path d="M115.476 38.5865H116.986V39.5611H115.476V38.5865Z" fill="white"/>
<path d="M112.802 38.5865H114.312V39.5611H112.802V38.5865Z" fill="white"/>
<path d="M128.847 40.1642H130.356V41.1387H128.847V40.1642Z" fill="white"/>
<path d="M126.173 40.1642H127.682V41.1387H126.173V40.1642Z" fill="white"/>
<path d="M123.499 40.1642H125.008V41.1387H123.499V40.1642Z" fill="white"/>
<path d="M120.824 40.1642H122.334V41.1387H120.824V40.1642Z" fill="white"/>
<path d="M118.15 40.1642H119.66V41.1387H118.15V40.1642Z" fill="white"/>
<path d="M115.476 40.1642H116.986V41.1387H115.476V40.1642Z" fill="white"/>
<path d="M112.802 40.1642H114.312V41.1387H112.802V40.1642Z" fill="white"/>
<path d="M128.847 41.7417H130.356V42.7163H128.847V41.7417Z" fill="white"/>
<path d="M126.173 41.7417H127.682V42.7163H126.173V41.7417Z" fill="white"/>
<path d="M120.824 41.7417H122.334V42.7163H120.824V41.7417Z" fill="white"/>
<path d="M118.15 41.7417H119.66V42.7163H118.15V41.7417Z" fill="white"/>
<path d="M115.476 41.7417H116.986V42.7163H115.476V41.7417Z" fill="white"/>
<path d="M112.802 41.7417H114.312V42.7163H112.802V41.7417Z" fill="white"/>
<path d="M128.847 43.3193H130.356V44.2939H128.847V43.3193Z" fill="white"/>
<path d="M126.173 43.3193H127.682V44.2939H126.173V43.3193Z" fill="white"/>
<path d="M120.824 43.3193H122.334V44.2939H120.824V43.3193Z" fill="white"/>
<path d="M118.15 43.3193H119.66V44.2939H118.15V43.3193Z" fill="white"/>
<path d="M115.476 43.3193H116.986V44.2939H115.476V43.3193Z" fill="white"/>
<path d="M112.802 43.3193H114.312V44.2939H112.802V43.3193Z" fill="white"/>
<path d="M128.847 44.8967H130.356V45.8713H128.847V44.8967Z" fill="white"/>
<path d="M126.173 44.8967H127.682V45.8713H126.173V44.8967Z" fill="white"/>
<path d="M120.824 44.8967H122.334V45.8713H120.824V44.8967Z" fill="white"/>
<path d="M118.15 44.8967H119.66V45.8713H118.15V44.8967Z" fill="white"/>
<path d="M115.476 44.8967H116.986V45.8713H115.476V44.8967Z" fill="white"/>
<path d="M112.802 44.8967H114.312V45.8713H112.802V44.8967Z" fill="white"/>
<path d="M128.847 46.4742H130.356V47.4488H128.847V46.4742Z" fill="white"/>
<path d="M126.173 46.4742H127.682V47.4488H126.173V46.4742Z" fill="white"/>
<path d="M123.499 46.4742H125.008V47.4488H123.499V46.4742Z" fill="white"/>
<path d="M120.824 46.4742H122.334V47.4488H120.824V46.4742Z" fill="white"/>
<path d="M115.476 46.4742H116.986V47.4488H115.476V46.4742Z" fill="white"/>
<path d="M112.802 46.4742H114.312V47.4488H112.802V46.4742Z" fill="white"/>
<path d="M128.847 48.0519H130.356V49.0264H128.847V48.0519Z" fill="white"/>
<path d="M126.173 48.0518H127.682V49.0263H126.173V48.0518Z" fill="white"/>
<path d="M123.499 48.0518H125.008V49.0263H123.499V48.0518Z" fill="white"/>
<path d="M120.824 48.0518H122.334V49.0263H120.824V48.0518Z" fill="white"/>
<path d="M115.476 48.0518H116.986V49.0263H115.476V48.0518Z" fill="white"/>
<path d="M112.802 48.0518H114.312V49.0263H112.802V48.0518Z" fill="white"/>
<path d="M128.847 49.6295H130.356V50.6041H128.847V49.6295Z" fill="white"/>
<path d="M126.173 49.6294H127.682V50.604H126.173V49.6294Z" fill="white"/>
<path d="M123.499 49.6294H125.008V50.604H123.499V49.6294Z" fill="white"/>
<path d="M112.802 49.6294H114.312V50.604H112.802V49.6294Z" fill="white"/>
<path d="M128.847 51.207H130.356V52.1816H128.847V51.207Z" fill="white"/>
<path d="M126.173 51.207H127.682V52.1816H126.173V51.207Z" fill="white"/>
<path d="M123.499 51.207H125.008V52.1816H123.499V51.207Z" fill="white"/>
<path d="M118.15 51.207H119.66V52.1816H118.15V51.207Z" fill="white"/>
<path d="M115.476 51.207H116.986V52.1816H115.476V51.207Z" fill="white"/>
<path d="M112.802 51.207H114.312V52.1816H112.802V51.207Z" fill="white"/>
<path d="M128.847 52.7845H130.356V53.7591H128.847V52.7845Z" fill="white"/>
<path d="M123.499 52.7845H125.008V53.7591H123.499V52.7845Z" fill="white"/>
<path d="M120.824 52.7845H122.334V53.7591H120.824V52.7845Z" fill="white"/>
<path d="M118.15 52.7845H119.66V53.7591H118.15V52.7845Z" fill="white"/>
<path d="M115.476 52.7845H116.986V53.7591H115.476V52.7845Z" fill="white"/>
<path d="M112.802 52.7845H114.312V53.7591H112.802V52.7845Z" fill="white"/>
<path d="M128.847 54.3621H130.356V55.3366H128.847V54.3621Z" fill="white"/>
<path d="M126.173 54.3622H127.682V55.3367H126.173V54.3622Z" fill="white"/>
<path d="M123.499 54.3622H125.008V55.3367H123.499V54.3622Z" fill="white"/>
<path d="M120.824 54.3622H122.334V55.3367H120.824V54.3622Z" fill="white"/>
<path d="M118.15 54.3622H119.66V55.3367H118.15V54.3622Z" fill="white"/>
<path d="M115.476 54.3622H116.986V55.3367H115.476V54.3622Z" fill="white"/>
<path d="M112.802 54.3622H114.312V55.3367H112.802V54.3622Z" fill="white"/>
<path d="M49.4574 33.5863H72.2219V67.6219H49.4574V33.5863Z" fill="#EBEBFF"/>
<path d="M52.1391 36.2582H64.9735V36.7705H52.1391V36.2582Z" fill="white"/>
<path d="M66.2626 36.2582H69.5402V36.7705H66.2626V36.2582Z" fill="white"/>
<path d="M52.1391 38.0668H64.9735V38.5791H52.1391V38.0668Z" fill="white"/>
<path d="M66.2626 38.0668H69.5402V38.5791H66.2626V38.0668Z" fill="white"/>
<path d="M52.1391 39.8755H64.9735V40.3878H52.1391V39.8755Z" fill="white"/>
<path d="M66.2626 39.8755H69.5402V40.3878H66.2626V39.8755Z" fill="white"/>
<path d="M52.1391 41.6842H64.9735V42.1965H52.1391V41.6842Z" fill="white"/>
<path d="M66.2626 41.6842H69.5402V42.1965H66.2626V41.6842Z" fill="white"/>
<path d="M52.1391 43.4929H64.9735V44.0052H52.1391V43.4929Z" fill="white"/>
<path d="M66.2626 43.493H69.5402V44.0053H66.2626V43.493Z" fill="white"/>
<path d="M52.1391 45.3016H64.9735V45.8139H52.1391V45.3016Z" fill="white"/>
<path d="M66.2626 45.3016H69.5402V45.8139H66.2626V45.3016Z" fill="white"/>
<path d="M52.1391 47.1104H64.9735V47.6227H52.1391V47.1104Z" fill="white"/>
<path d="M66.2626 47.1104H69.5402V47.6227H66.2626V47.1104Z" fill="white"/>
<path d="M52.1391 48.9192H64.9735V49.4315H52.1391V48.9192Z" fill="white"/>
<path d="M66.2626 48.9192H69.5402V49.4315H66.2626V48.9192Z" fill="white"/>
<path d="M52.1391 50.7278H64.9735V51.2401H52.1391V50.7278Z" fill="white"/>
<path d="M66.2626 50.7278H69.5402V51.2401H66.2626V50.7278Z" fill="white"/>
<path d="M52.1391 52.5365H64.9735V53.0488H52.1391V52.5365Z" fill="white"/>
<path d="M66.2626 52.5365H69.5402V53.0488H66.2626V52.5365Z" fill="white"/>
<path d="M79.3133 16.641H92.1478V17.1533H79.3133V16.641Z" fill="white"/>
<path d="M93.4369 16.641H96.7145V17.1533H93.4369V16.641Z" fill="white"/>
<path d="M79.3133 18.4497H92.1478V18.962H79.3133V18.4497Z" fill="white"/>
<path d="M93.4369 18.4497H96.7145V18.962H93.4369V18.4497Z" fill="white"/>
<path d="M79.3133 20.2583H92.1478V20.7706H79.3133V20.2583Z" fill="white"/>
<path d="M93.4369 20.2583H96.7145V20.7706H93.4369V20.2583Z" fill="white"/>
<path d="M79.3133 22.067H92.1478V22.5793H79.3133V22.067Z" fill="white"/>
<path d="M93.4369 22.067H96.7145V22.5793H93.4369V22.067Z" fill="white"/>
<path d="M79.3133 23.8757H92.1478V24.388H79.3133V23.8757Z" fill="white"/>
<path d="M93.4369 23.8757H96.7145V24.388H93.4369V23.8757Z" fill="white"/>
<path d="M79.3133 25.6844H92.1478V26.1967H79.3133V25.6844Z" fill="white"/>
<path d="M93.4369 25.6844H96.7145V26.1967H93.4369V25.6844Z" fill="white"/>
<path d="M79.3133 27.4932H92.1478V28.0055H79.3133V27.4932Z" fill="white"/>
<path d="M93.4369 27.4932H96.7145V28.0055H93.4369V27.4932Z" fill="white"/>
<path d="M79.3133 29.302H92.1478V29.8143H79.3133V29.302Z" fill="white"/>
<path d="M93.4369 29.302H96.7145V29.8143H93.4369V29.302Z" fill="white"/>
<path d="M79.3133 31.1107H92.1478V31.623H79.3133V31.1107Z" fill="white"/>
<path d="M93.4369 31.1107H96.7145V31.623H93.4369V31.1107Z" fill="white"/>
<path d="M79.3133 32.9194H92.1478V33.4317H79.3133V32.9194Z" fill="white"/>
<path d="M93.4369 32.9194H96.7145V33.4317H93.4369V32.9194Z" fill="white"/>
<path d="M79.3133 34.728H92.1478V35.2403H79.3133V34.728Z" fill="white"/>
<path d="M93.4369 34.728H96.7145V35.2403H93.4369V34.728Z" fill="white"/>
<path d="M79.3133 36.5366H92.1478V37.0489H79.3133V36.5366Z" fill="white"/>
<path d="M93.4369 36.5367H96.7145V37.049H93.4369V36.5367Z" fill="white"/>
<path d="M79.3133 38.3455H92.1478V38.8578H79.3133V38.3455Z" fill="white"/>
<path d="M93.4369 38.3455H96.7145V38.8578H93.4369V38.3455Z" fill="white"/>
<path d="M79.3133 40.1542H92.1478V40.6665H79.3133V40.1542Z" fill="white"/>
<path d="M93.4369 40.1542H96.7145V40.6665H93.4369V40.1542Z" fill="white"/>
<path d="M79.3133 41.9629H92.1478V42.4752H79.3133V41.9629Z" fill="white"/>
<path d="M93.4369 41.963H96.7145V42.4753H93.4369V41.963Z" fill="white"/>
<path d="M79.3133 43.7716H92.1478V44.2839H79.3133V43.7716Z" fill="white"/>
<path d="M93.4369 43.7716H96.7145V44.2839H93.4369V43.7716Z" fill="white"/>
<path d="M79.3133 45.5803H92.1478V46.0926H79.3133V45.5803Z" fill="white"/>
<path d="M93.4369 45.5803H96.7145V46.0926H93.4369V45.5803Z" fill="white"/>
<path d="M79.3133 47.3889H92.1478V47.9012H79.3133V47.3889Z" fill="white"/>
<path d="M93.4369 47.3889H96.7145V47.9012H93.4369V47.3889Z" fill="white"/>
<path d="M79.3133 49.1978H92.1478V49.71H79.3133V49.1978Z" fill="white"/>
<path d="M93.4369 49.1978H96.7145V49.71H93.4369V49.1978Z" fill="white"/>
<path d="M79.3133 51.0063H92.1478V51.5186H79.3133V51.0063Z" fill="white"/>
<path d="M93.4369 51.0065H96.7145V51.5188H93.4369V51.0065Z" fill="white"/>
<path d="M79.3133 52.8152H92.1478V53.3275H79.3133V52.8152Z" fill="white"/>
<path d="M93.4369 52.8152H96.7145V53.3275H93.4369V52.8152Z" fill="white"/>
<path d="M152.594 50.2904V59.7396H156.74V52.0257C158.129 52.1022 161.113 51.6688 161.113 46.5554L158.728 47.0206C158.728 47.0206 159.384 50.1295 156.74 50.5884V43.6887H152.594V48.8595C151.913 48.6348 151.228 48.0197 151.228 46.4486H149.425C149.425 46.4486 148.516 49.7072 152.594 50.2904Z" fill="#65240F"/>
<path d="M131.912 53.4773V62.9265H135.487V55.2126C136.684 55.2891 139.257 54.8556 139.257 49.7422L137.201 50.2075C137.201 50.2075 137.767 53.3164 135.487 53.7753V46.8756H131.912V52.0464C131.324 51.8217 130.734 51.2066 130.734 49.6355H129.178C129.178 49.6355 128.395 52.8941 131.912 53.4773Z" fill="#65240F"/>
<path d="M148.097 47.3445H162.353C164.715 47.3445 166.63 46.1317 166.63 44.6356V23.0632C166.63 21.5671 164.715 20.3544 162.353 20.3544H148.097C145.735 20.3544 143.821 21.5671 143.821 23.0632V44.6356C143.821 46.1317 145.735 47.3445 148.097 47.3445Z" fill="#ACD7B8"/>
<path d="M130.566 50.5313H137.956C140.318 50.5313 142.233 49.3185 142.233 47.8224V35.1956C142.233 33.6995 140.318 32.4867 137.956 32.4867H130.566C128.204 32.4867 126.289 33.6995 126.289 35.1956V47.8224C126.289 49.3185 128.204 50.5313 130.566 50.5313Z" fill="#ACD7B8"/>
<path d="M32.6933 50.2903V59.7395H36.8392V52.0256C38.2279 52.102 41.2115 51.6686 41.2115 46.5552L38.8266 47.0205C38.8266 47.0205 39.4832 50.1294 36.8392 50.5883V43.6886H32.6933V48.8594C32.0116 48.6347 31.3273 48.0196 31.3273 46.4485H29.5235C29.5235 46.4485 28.6153 49.7071 32.6933 50.2903Z" fill="#65240F"/>
<path d="M32.6933 50.2903V59.7395H36.8392V52.0256C38.2279 52.102 41.2115 51.6686 41.2115 46.5552L38.8266 47.0205C38.8266 47.0205 39.4832 50.1294 36.8392 50.5883V43.6886H32.6933V48.8594C32.0116 48.6347 31.3273 48.0196 31.3273 46.4485H29.5235C29.5235 46.4485 28.6153 49.7071 32.6933 50.2903Z" fill="#65240F"/>
<path d="M15.8714 50.2903V59.7395H12.2075V52.0256C10.9804 52.102 8.34364 51.6686 8.34364 46.5552L10.4513 47.0205C10.4513 47.0205 9.87093 50.1294 12.2078 50.5883V43.6886H15.8717V48.8594C16.4742 48.6347 17.079 48.0196 17.079 46.4485H18.6729C18.6729 46.4485 19.4752 49.7071 15.8714 50.2903Z" fill="#65240F"/>
<path d="M52.2915 53.111V62.9267H55.7313V54.9137C56.8835 54.9932 59.3589 54.5429 59.3589 49.2313L57.3803 49.7146C57.3803 49.7146 57.925 52.944 55.7313 53.4206V46.2534H52.2915V51.6246C51.726 51.3912 51.1582 50.7524 51.1582 49.1202H49.6616C49.6616 49.1202 48.9081 52.5052 52.2915 53.111Z" fill="#65240F"/>
<path d="M27.6387 47.3444H41.8945C44.2565 47.3444 46.1713 46.1316 46.1713 44.6355V24.4176C46.1713 22.9215 44.2565 21.7087 41.8945 21.7087H27.6387C25.2767 21.7087 23.362 22.9215 23.362 24.4176V44.6355C23.362 46.1316 25.2767 47.3444 27.6387 47.3444Z" fill="#ACD7B8"/>
<path d="M10.1066 47.3444H17.4976C19.8596 47.3444 21.7743 46.1316 21.7743 44.6355V32.0087C21.7743 30.5126 19.8596 29.2998 17.4976 29.2998H10.1066C7.74463 29.2998 5.82991 30.5126 5.82991 32.0087V44.6355C5.82991 46.1316 7.74463 47.3444 10.1066 47.3444Z" fill="#ACD7B8"/>
<path d="M52.1554 50.5314H56.7936C59.1557 50.5314 61.0704 49.3186 61.0704 47.8225V39.7123C61.0704 38.2162 59.1557 37.0034 56.7936 37.0034H52.1554C49.7934 37.0034 47.8787 38.2162 47.8787 39.7123V47.8225C47.8787 49.3186 49.7934 50.5314 52.1554 50.5314Z" fill="#ACD7B8"/>
</svg>
